<?xml version="1.0" standalone="no"?>
<!DOCTYPE svg PUBLIC "-//W3C//DTD SVG 20010904//EN"
 "http://www.w3.org/TR/2001/REC-SVG-20010904/DTD/svg10.dtd">
<svg version="1.0" xmlns="http://www.w3.org/2000/svg"
 width="1024.000000pt" height="1536.000000pt" viewBox="0 0 1024.000000 1536.000000"
 preserveAspectRatio="xMidYMid meet">

<g transform="translate(0.000000,1536.000000) scale(0.100000,-0.100000)"
fill="#000000" stroke="none">
<path d="M4787 12566 c-3 -7 0 -19 6 -25 7 -7 13 -64 15 -152 l4 -140 107 7
c58 3 107 8 109 9 2 1 5 20 9 41 5 38 5 39 -11 17 -15 -20 -26 -23 -82 -23
l-65 0 3 55 3 55 47 0 c42 0 48 3 48 21 0 17 -6 20 -32 19 -67 -4 -68 -4 -68
46 l0 46 73 -4 c72 -3 73 -3 69 19 -4 22 -8 23 -117 23 -87 0 -114 -3 -118
-14z"/>
<path d="M5107 12568 c-2 -7 0 -22 5 -32 6 -11 9 -75 6 -148 l-4 -130 92 4
c103 3 129 15 172 79 20 28 23 43 20 87 -5 59 -27 95 -78 130 -28 19 -46 22
-121 22 -61 0 -89 -4 -92 -12z m171 -41 c23 -18 42 -64 42 -101 0 -74 -39
-126 -95 -126 l-35 0 0 118 c0 65 3 121 6 125 8 8 66 -3 82 -16z"/>
<path d="M5448 12443 c5 -169 21 -193 132 -195 99 -2 133 44 148 207 11 108 8
115 -39 115 l-26 0 -5 -127 c-5 -116 -7 -128 -28 -145 -28 -22 -58 -23 -89 -2
-22 16 -22 20 -19 145 l3 129 -40 0 -40 0 3 -127z"/>
<path d="M4317 12553 c-32 -4 -37 -7 -31 -21 7 -17 22 -195 23 -278 l1 -41 88
12 c48 7 102 20 119 28 46 24 74 77 76 142 1 46 -4 61 -29 97 -43 62 -100 76
-247 61z m158 -59 c29 -31 39 -78 32 -141 -6 -56 -31 -83 -84 -90 l-40 -5 -6
43 c-5 36 -10 182 -8 212 1 4 19 7 41 7 31 0 47 -6 65 -26z"/>
<path d="M5875 12546 c-116 -52 -141 -202 -49 -288 37 -34 109 -55 149 -41 36
12 70 55 61 78 -5 15 -11 13 -41 -14 -20 -17 -43 -31 -51 -31 -28 0 -70 28
-82 55 -17 37 -15 121 4 160 29 61 117 73 130 17 11 -50 13 -53 41 -50 22 2
29 9 31 29 8 70 -110 122 -193 85z"/>
<path d="M4059 12523 c-24 -4 -28 -11 -39 -66 -6 -34 -22 -106 -36 -159 -13
-53 -24 -99 -24 -103 0 -3 12 -5 27 -3 20 2 29 11 38 38 11 33 15 36 75 46
l62 12 17 -39 c14 -33 21 -39 46 -39 53 0 60 12 33 56 -12 22 -48 90 -78 152
-57 118 -54 115 -121 105z m80 -194 c1 -13 -10 -18 -44 -21 -25 -2 -45 0 -45
3 0 4 7 40 17 80 l16 74 28 -60 c15 -33 28 -67 28 -76z"/>
<path d="M6179 12418 c-23 -45 -59 -109 -80 -142 -21 -33 -36 -63 -33 -68 3
-4 18 -8 33 -8 22 0 31 8 45 36 l17 36 57 -7 c64 -7 82 -23 82 -72 0 -33 1
-33 46 -33 45 0 46 0 39 28 -4 15 -20 85 -36 156 -16 70 -34 135 -40 142 -6 8
-28 14 -49 14 -37 0 -38 -1 -81 -82z m100 -105 c1 -9 -14 -13 -44 -13 -25 0
-45 3 -45 6 0 4 14 36 32 71 l32 65 12 -58 c7 -33 13 -65 13 -71z"/>
<path d="M3679 12466 c-2 -3 -24 -6 -49 -9 -25 -2 -44 -7 -43 -11 1 -3 7 -32
13 -64 6 -31 15 -75 20 -97 5 -22 12 -66 15 -98 8 -65 -6 -61 115 -37 112 22
164 77 158 171 -7 99 -64 149 -171 149 -30 0 -56 -2 -58 -4z m120 -62 c32 -41
45 -101 32 -146 -9 -29 -21 -43 -51 -58 -67 -34 -77 -29 -85 43 -3 34 -10 86
-15 116 -6 29 -7 57 -4 62 3 5 27 9 54 9 41 0 52 -4 69 -26z"/>
<path d="M6417 12463 c-19 -18 -5 -33 31 -33 21 0 41 -2 43 -5 6 -5 -24 -218
-35 -253 -7 -20 -4 -22 36 -22 40 0 43 2 44 28 1 15 7 73 14 130 14 113 14
114 88 93 29 -9 32 -8 32 13 0 21 -7 24 -112 39 -127 19 -132 20 -141 10z"/>
<path d="M3472 12433 c-19 -4 -23 -9 -18 -26 18 -74 47 -237 49 -269 1 -38 1
-38 37 -32 48 9 52 12 39 35 -14 27 -49 210 -49 259 0 42 -2 43 -58 33z"/>
<path d="M6700 12412 c0 -20 -31 -246 -37 -269 -5 -21 -2 -23 36 -23 l41 0 0
43 c0 59 20 198 32 220 12 24 9 26 -36 34 -23 3 -36 2 -36 -5z"/>
<path d="M3347 12398 c-21 -7 -27 -15 -22 -27 9 -21 45 -153 45 -166 0 -5 -38
28 -84 74 l-83 83 -47 -7 c-42 -7 -47 -10 -43 -29 41 -181 57 -260 57 -282 0
-21 4 -24 20 -20 11 3 29 9 41 12 14 4 18 11 14 22 -13 31 -54 196 -50 201 4
4 144 -119 179 -158 20 -22 42 -26 64 -13 10 7 8 30 -12 114 -14 58 -28 128
-32 157 -4 28 -9 51 -13 50 -3 0 -19 -5 -34 -11z"/>
<path d="M6830 12348 c0 -29 7 -100 15 -158 16 -113 26 -130 76 -130 23 0 39
17 113 124 48 69 95 126 104 129 10 2 0 9 -26 17 -23 7 -44 11 -45 9 -2 -2
-29 -45 -60 -95 -83 -133 -84 -133 -92 -20 -4 53 -5 107 -2 122 5 26 1 29 -60
48 -22 7 -23 5 -23 -46z"/>
<path d="M2993 12306 c-24 -8 -30 -15 -24 -26 5 -8 19 -56 32 -107 19 -75 21
-96 11 -117 -14 -32 -52 -51 -86 -42 -21 5 -29 19 -51 86 -13 44 -28 99 -31
121 -7 43 -12 45 -79 19 -29 -11 -30 -16 -11 -36 8 -7 28 -56 46 -108 38 -114
54 -131 124 -130 88 1 156 57 156 129 0 23 -47 216 -53 221 -1 1 -16 -4 -34
-10z"/>
<path d="M7193 12233 c-22 -32 -42 -62 -44 -68 -11 -27 -83 -125 -93 -125 -6
-1 0 -7 14 -15 27 -15 60 -20 60 -7 1 4 11 19 23 34 21 26 25 27 62 17 48 -13
65 -32 65 -75 0 -33 16 -44 67 -44 19 0 21 3 14 23 -5 12 -12 51 -15 87 -13
125 -29 215 -40 222 -6 4 -25 8 -42 8 -27 0 -37 -8 -71 -57z m70 -141 c0 -2
-19 2 -41 8 l-39 12 36 56 36 56 5 -65 c3 -35 4 -65 3 -67z"/>
<path d="M4955 12011 c-56 -10 -99 -35 -127 -73 -19 -28 -23 -45 -23 -110 0
-70 2 -79 31 -115 40 -51 87 -73 152 -73 63 0 108 17 144 56 36 39 48 74 48
140 0 61 -9 85 -48 127 -22 23 -110 60 -131 56 -3 -1 -24 -5 -46 -8z m80 -53
c29 -25 44 -78 45 -151 1 -158 -153 -174 -175 -18 -10 73 2 130 35 163 34 34
60 35 95 6z"/>
<path d="M5240 11996 c0 -9 7 -19 15 -22 12 -5 15 -31 15 -144 0 -110 -3 -140
-15 -150 -8 -7 -15 -19 -15 -26 0 -11 18 -14 76 -14 75 0 76 0 69 23 -4 12
-10 46 -12 75 -4 47 -3 52 15 52 15 0 30 -20 59 -75 l38 -75 48 0 c28 0 47 4
47 11 0 6 -18 44 -39 83 l-40 72 28 12 c48 21 66 87 35 130 -30 43 -71 55
-201 60 -109 4 -123 3 -123 -12z m218 -52 c26 -18 28 -50 6 -82 -11 -16 -25
-22 -55 -22 l-39 0 0 60 0 60 33 0 c18 0 43 -7 55 -16z"/>
<path d="M4445 11984 c-73 -6 -95 -13 -95 -29 0 -8 8 -19 19 -24 15 -8 19 -27
25 -98 4 -48 9 -109 12 -134 5 -34 2 -49 -10 -62 -21 -21 -20 -40 2 -33 9 2
51 8 92 11 149 13 211 40 245 105 23 44 19 137 -8 184 -40 72 -113 93 -282 80z
m183 -94 c24 -49 29 -117 11 -169 -13 -36 -53 -61 -98 -61 -35 0 -37 5 -45
173 l-6 108 58 -3 c57 -3 57 -3 80 -48z"/>
<path d="M5737 11875 c-26 -53 -65 -125 -87 -161 -22 -37 -40 -70 -40 -75 0
-5 17 -9 38 -9 33 1 39 5 58 43 l22 42 61 1 c67 2 66 3 75 -42 5 -22 2 -36 -9
-47 -14 -15 -12 -17 22 -26 48 -12 123 -22 123 -17 0 2 -10 25 -22 52 -12 27
-39 112 -58 189 l-37 140 -49 3 -49 3 -48 -96z m91 -57 c6 -34 10 -63 9 -64
-1 -1 -23 0 -49 3 l-46 5 29 48 c16 26 29 52 29 59 0 6 4 11 8 11 5 0 14 -28
20 -62z"/>
<path d="M3955 11933 c-11 -2 -44 -9 -72 -14 -42 -8 -53 -14 -53 -30 0 -12 7
-19 20 -19 29 0 38 -27 52 -153 9 -91 9 -122 -1 -143 -6 -15 -9 -29 -7 -32 3
-3 71 5 151 18 l146 22 -3 51 c-2 29 -8 52 -15 55 -7 2 -13 -3 -13 -12 0 -30
-44 -65 -91 -71 -54 -8 -50 -18 -70 169 -11 108 -11 119 4 128 9 5 17 16 17
23 0 15 -23 18 -65 8z"/>
<path d="M6050 11926 c0 -8 5 -18 11 -22 13 -8 4 -157 -17 -257 -8 -38 -14
-70 -14 -71 0 -2 52 -9 115 -16 113 -12 115 -12 162 11 57 29 82 68 90 143 5
44 1 63 -17 101 -31 64 -76 91 -184 110 -112 19 -146 19 -146 1z m212 -83 c49
-47 48 -152 -3 -217 -17 -22 -28 -26 -71 -26 l-50 0 6 38 c3 20 8 64 11 97 14
152 13 148 48 141 17 -4 44 -18 59 -33z"/>
<path d="M3665 11879 c-212 -47 -218 -50 -177 -90 26 -25 31 -41 47 -149 14
-96 15 -127 6 -147 -7 -14 -10 -27 -8 -30 2 -2 62 8 131 22 70 14 139 25 152
25 27 0 29 13 15 85 l-7 40 -23 -36 c-22 -37 -48 -52 -107 -64 -36 -7 -40 -1
-50 75 l-7 50 36 0 c55 0 67 8 67 46 l0 33 -46 -19 c-65 -28 -70 -26 -78 26
-11 83 -11 84 34 84 23 0 58 -8 78 -18 l37 -18 -3 48 c-4 45 -6 48 -30 47 -15
-1 -45 -5 -67 -10z"/>
<path d="M6567 11856 c-48 -18 -74 -41 -97 -86 -54 -109 -21 -213 84 -265 97
-48 209 -25 261 53 48 72 43 167 -12 233 -53 63 -161 93 -236 65z m144 -68
c27 -37 36 -115 20 -174 -23 -87 -100 -115 -153 -56 -24 28 -28 40 -28 92 0
72 17 119 55 148 41 32 79 29 106 -10z"/>
<path d="M3344 11798 c-30 -43 -47 -87 -46 -115 3 -39 -11 -42 -34 -7 -13 19
-14 28 -5 37 14 14 15 37 1 37 -6 0 -22 -11 -35 -25 -19 -18 -25 -35 -25 -69
0 -37 5 -48 31 -70 35 -29 37 -30 75 -16 25 10 25 12 11 28 -20 22 -7 48 18
38 11 -4 25 0 36 10 17 15 19 15 25 0 3 -9 3 -24 0 -33 -6 -15 -4 -15 13 2 24
23 36 74 22 94 -5 7 -27 14 -49 15 -44 1 -44 13 -3 50 12 11 21 23 21 28 0 13
-47 9 -56 -4z m-77 -190 c-3 -8 -6 -5 -6 6 -1 11 2 17 5 13 3 -3 4 -12 1 -19z"/>
<path d="M6892 11788 c-21 -21 -14 -58 12 -68 38 -14 42 -31 13 -56 -31 -27
-33 -34 -11 -34 9 0 32 17 50 37 41 44 48 105 15 123 -26 14 -64 13 -79 -2z"/>
<path d="M7032 11778 c-16 -16 -15 -31 6 -68 17 -31 17 -31 -12 -54 -16 -13
-26 -28 -22 -34 10 -16 45 -2 82 33 43 41 46 84 8 114 -30 24 -45 26 -62 9z"/>
<path d="M5040 11458 c-94 -57 -344 -178 -500 -241 -268 -109 -616 -196 -995
-249 -139 -19 -203 -22 -485 -22 -330 -1 -482 9 -684 42 l-108 18 5 -1090 c4
-1010 6 -1109 26 -1330 22 -254 46 -470 62 -576 18 -115 88 -453 119 -572 208
-804 725 -1579 1384 -2077 249 -188 563 -380 864 -529 86 -43 193 -99 238
-125 45 -26 87 -47 95 -47 8 0 29 9 47 20 42 26 259 135 472 239 1007 488
1717 1274 2052 2270 92 275 180 688 212 996 66 626 76 882 76 1918 0 493 -3
897 -7 897 -5 0 -78 -9 -163 -20 -775 -97 -1481 -17 -2090 237 -169 71 -423
195 -504 247 l-52 33 -64 -39z m60 -132 c0 -8 12 -37 26 -65 l27 -51 66 0 65
0 -48 -49 -49 -50 15 -60 c9 -34 13 -61 9 -61 -4 0 -28 14 -54 30 -26 17 -52
30 -57 30 -5 0 -32 -14 -60 -31 -28 -17 -53 -29 -56 -27 -2 3 1 29 6 59 l11
54 -50 46 c-28 25 -51 48 -51 52 0 3 30 7 67 9 l68 3 25 62 c24 60 40 79 40
49z m-1032 -417 l27 -54 58 -3 c31 -2 57 -5 57 -8 0 -2 -19 -22 -42 -44 l-42
-39 12 -58 c6 -31 10 -58 8 -60 -2 -3 -27 7 -55 22 l-51 25 -56 -35 -57 -36 7
25 c3 14 9 45 12 69 5 41 4 43 -40 77 -25 19 -45 38 -46 43 0 4 18 7 39 7 67
0 86 13 111 75 12 30 24 54 26 52 3 -2 17 -28 32 -58z m2191 -58 c16 -16 34
-21 74 -21 l52 0 -49 -43 c-53 -47 -52 -42 -30 -146 l7 -33 -57 37 -56 38 -56
-38 -57 -37 7 33 c22 101 22 102 -29 147 l-48 42 46 0 c71 0 91 12 116 71 l23
52 18 -41 c10 -22 28 -50 39 -61z m-3542 -111 c29 0 53 -3 53 -6 0 -4 -20 -24
-44 -45 l-44 -39 14 -53 c7 -28 14 -56 14 -60 0 -4 -26 7 -58 25 l-59 32 -53
-33 -53 -33 6 29 c20 104 22 97 -22 136 -23 20 -41 39 -41 41 0 3 26 6 58 8
l57 3 30 63 29 62 30 -65 30 -65 53 0z m2524 74 c413 -188 711 -275 1084 -319
99 -11 245 -15 612 -15 l483 0 1 -282 c2 -1162 -6 -1516 -41 -1805 -6 -46 -13
-114 -16 -153 -3 -39 -9 -83 -13 -98 l-7 -27 -1107 -3 c-609 -1 -1107 2 -1107
6 0 5 21 19 46 32 l47 23 581 -4 581 -4 -1 25 c0 14 -18 81 -38 150 -29 96
-35 129 -27 142 6 10 11 29 11 42 0 35 10 56 26 56 12 0 12 4 2 20 -20 32 -26
24 -33 -44 -7 -60 -9 -64 -45 -85 -40 -22 -100 -28 -100 -10 0 7 11 9 30 5 19
-3 29 -2 25 4 -3 6 -14 10 -23 10 -36 0 -159 80 -144 94 3 4 0 11 -7 16 -20
12 12 93 47 121 23 18 37 20 93 16 54 -3 76 -10 114 -36 25 -17 80 -40 120
-51 73 -19 150 -47 212 -75 17 -8 35 -15 41 -15 16 0 42 -85 44 -143 3 -107
-55 -140 -128 -72 -37 35 -58 39 -38 8 36 -57 116 -73 159 -33 22 21 25 32 25
92 l0 68 48 0 c58 1 112 31 159 91 34 42 36 55 24 99 -6 23 -3 26 33 37 22 7
43 10 46 7 3 -3 3 -88 2 -189 -4 -176 -3 -186 18 -215 12 -16 27 -30 34 -30
36 0 47 112 20 196 -9 27 -20 112 -24 189 l-9 140 60 88 c63 91 81 144 57 164
-20 17 -686 93 -808 93 -43 -1 -50 -5 -170 -115 -68 -64 -128 -114 -133 -112
-5 1 -19 27 -30 57 -11 30 -28 65 -39 76 -35 39 -287 119 -468 149 -131 22
-146 28 -90 36 66 10 -132 -1 -217 -12 -83 -10 -159 -42 -168 -70 -8 -25 -27
-24 -51 2 -42 47 -146 79 -253 79 -157 0 -673 -121 -722 -169 -15 -14 -95
-205 -114 -271 -4 -14 -49 -137 -100 -275 -93 -248 -120 -333 -112 -341 4 -4
533 -4 902 0 169 2 305 -9 353 -29 23 -9 42 -21 42 -26 0 -11 -1499 -5 -1597
6 -46 5 -63 4 -63 -5 0 -9 -66 -11 -270 -9 l-270 4 -5 30 c-2 17 -11 111 -20
210 -8 99 -20 236 -27 305 -7 79 -13 434 -15 966 l-4 841 457 7 c500 7 657 16
838 46 218 37 481 111 635 179 156 69 337 152 351 161 29 19 69 9 191 -46z
m2474 -74 c30 0 55 -2 55 -5 0 -3 -18 -22 -41 -42 -34 -31 -40 -41 -35 -65 3
-15 9 -42 12 -59 l7 -30 -46 30 c-25 17 -47 31 -50 31 -3 0 -29 -16 -58 -35
-29 -19 -55 -33 -57 -31 -2 2 1 21 7 43 19 68 14 85 -36 123 l-47 35 60 5 59
5 30 59 29 60 28 -62 28 -62 55 0z m-5156 -1532 l28 -53 53 -3 53 -3 -43 -44
-44 -44 12 -52 c14 -58 10 -69 -15 -47 -10 9 -33 23 -51 32 -33 17 -34 17 -84
-14 -49 -31 -50 -31 -45 -8 22 92 22 97 -19 139 l-38 39 46 0 c54 0 69 12 94
75 9 25 19 44 21 41 2 -2 17 -28 32 -58z m5134 35 c4 -16 15 -43 26 -60 19
-30 25 -33 73 -33 l52 0 -44 -45 -43 -44 15 -56 c8 -30 11 -55 6 -55 -5 0 -26
11 -46 25 -45 31 -56 31 -111 0 -24 -14 -45 -24 -47 -23 -1 2 3 27 9 57 l10
55 -41 36 c-23 19 -42 39 -42 43 0 4 25 7 56 7 l55 0 27 60 c15 32 30 59 33
60 4 0 9 -12 12 -27z m-2738 -57 c22 -9 55 -27 72 -39 l33 -22 0 -487 c0 -314
4 -489 10 -493 7 -4 10 159 10 483 l0 488 29 28 c38 36 106 56 216 63 75 4
116 0 250 -27 202 -40 360 -91 402 -130 20 -19 37 -49 47 -82 28 -99 29 -105
12 -111 -14 -6 -14 -10 -4 -27 7 -11 18 -20 25 -20 7 0 24 -16 39 -36 23 -29
25 -37 13 -45 -8 -5 -17 -9 -20 -9 -9 0 -37 -65 -44 -103 -12 -61 -8 -66 123
-143 10 -5 -13 -34 -24 -30 -9 3 -24 -10 -40 -35 -51 -82 -46 -85 66 -34 43
19 81 35 86 35 5 0 20 -39 33 -88 13 -48 26 -92 28 -99 6 -15 -596 -10 -752 7
-140 15 -305 6 -354 -20 -20 -10 -58 -34 -86 -54 -27 -20 -53 -36 -57 -36 -4
0 -28 21 -53 46 -25 25 -67 55 -93 66 -43 19 -59 20 -207 15 -88 -4 -185 -11
-214 -17 -29 -5 -182 -10 -340 -10 -157 0 -296 -1 -309 -1 -13 -1 -26 2 -29 5
-4 3 8 50 26 104 30 90 58 164 166 448 23 60 51 146 60 190 10 43 23 84 29 90
19 20 185 71 336 103 80 17 165 35 190 40 72 16 278 8 325 -13z m1865 -286
c36 -10 85 -23 110 -29 44 -10 44 -10 -15 -5 -57 5 -221 47 -234 60 -9 9 64
-5 139 -26z m48 -48 c28 -2 52 -9 52 -14 0 -13 -89 1 -120 19 -15 9 -17 12 -5
7 11 -3 44 -9 73 -12z m-605 -38 c19 -7 33 -47 22 -63 -10 -17 -145 -14 -145
3 0 7 -3 28 -7 46 l-6 33 60 -6 c33 -4 67 -9 76 -13z m745 -31 c-15 -2 -42 -2
-60 0 -18 2 -6 4 27 4 33 0 48 -2 33 -4z m92 -300 c6 -83 7 -86 17 -53 l11 35
3 -30 c3 -40 0 -117 -6 -132 -7 -20 -23 -15 -36 9 -11 21 -21 245 -12 261 10
17 16 -6 23 -90z m-2040 -1824 l0 -1400 -22 7 c-52 15 -313 146 -438 219 -417
242 -789 550 -1032 856 -134 169 -270 374 -341 515 -105 208 -212 504 -291
799 -35 134 -86 373 -86 405 0 3 497 4 1105 2 l1105 -2 0 -1401z m2275 1378
c-2 -12 -14 -74 -25 -137 -26 -139 -98 -423 -138 -540 -178 -520 -448 -932
-876 -1340 -206 -196 -365 -315 -646 -484 -121 -73 -462 -249 -522 -269 -17
-6 -18 65 -18 1393 l0 1400 1108 2 c609 2 1110 2 1115 0 4 -2 5 -13 2 -25z
m-4530 -597 c22 -56 41 -70 101 -70 19 0 34 -3 34 -7 0 -3 -18 -22 -41 -41
-44 -38 -44 -41 -23 -136 l7 -29 -56 32 -55 31 -48 -24 c-27 -14 -50 -24 -51
-22 -2 1 3 28 9 60 l12 57 -44 39 -45 39 40 1 c72 1 82 7 105 71 12 32 25 57
29 55 3 -2 15 -28 26 -56z m4633 1 c24 -63 35 -71 105 -71 l39 0 -46 -42 -46
-43 14 -60 c8 -33 13 -61 12 -63 -2 -1 -27 12 -55 29 l-51 32 -49 -26 c-27
-15 -51 -27 -54 -27 -2 0 2 26 9 58 l14 57 -40 38 c-22 21 -40 39 -40 41 0 2
24 7 54 10 l55 7 23 60 c13 32 25 59 28 59 3 0 15 -27 28 -59z m-3899 -1295
c9 -3 33 -6 54 -8 20 -1 37 -4 37 -7 0 -2 -18 -19 -39 -38 l-39 -33 14 -53 c7
-28 14 -55 14 -59 0 -4 -24 4 -54 19 l-54 26 -47 -27 c-27 -14 -50 -24 -52
-22 -3 3 0 29 6 58 l12 53 -48 42 -48 42 40 1 c72 1 85 9 112 69 l26 56 25
-57 c14 -32 32 -60 41 -62z m3277 -6 l58 0 -44 -45 -43 -44 15 -56 c8 -30 11
-55 7 -55 -5 0 -30 13 -57 30 l-47 29 -54 -30 c-29 -17 -55 -29 -57 -27 -2 2
3 26 11 53 l15 49 -47 48 -47 48 62 0 63 0 16 38 c8 20 20 48 25 62 9 24 11
22 38 -37 l29 -63 57 0z m-1607 -1130 l64 -5 -46 -38 c-51 -42 -54 -53 -32
-117 8 -24 13 -45 11 -47 -2 -2 -29 10 -60 27 l-56 32 -51 -32 c-28 -17 -53
-29 -55 -27 -3 2 0 24 5 48 16 69 14 76 -34 111 -24 18 -44 36 -45 41 0 4 23
7 51 7 50 0 89 13 89 29 0 5 10 30 21 56 l21 48 27 -64 27 -64 63 -5z"/>
<path d="M4235 10410 c-19 -8 -19 -9 3 -9 12 -1 22 4 22 9 0 6 -1 10 -2 9 -2
0 -12 -4 -23 -9z"/>
<path d="M5346 10396 c-22 -7 -42 -18 -44 -25 -3 -10 0 -10 16 -2 32 17 35 -1
13 -76 -11 -37 -22 -79 -25 -93 -3 -16 -16 -30 -33 -37 -25 -10 -21 -11 37
-12 56 0 63 1 47 13 -16 13 -16 18 9 112 14 55 30 107 35 117 11 20 2 21 -55
3z"/>
<path d="M4120 10374 c-6 -14 -15 -47 -22 -72 -14 -59 -40 -112 -67 -136 -19
-17 -21 -17 -27 -2 -9 24 24 105 54 133 32 30 6 32 -32 2 -75 -59 -76 -195 -1
-161 14 7 25 17 25 24 0 7 9 2 19 -12 17 -21 21 -22 36 -10 9 8 12 16 6 19 -9
6 36 202 53 230 5 7 -1 11 -14 11 -13 0 -24 -9 -30 -26z"/>
<path d="M4607 10375 c-59 -56 -82 -161 -43 -204 38 -42 92 -24 137 47 36 56
41 138 11 165 -27 25 -73 21 -105 -8z m80 -63 c-7 -62 -45 -147 -67 -147 -8 0
-20 11 -26 23 -20 39 23 182 58 195 28 10 41 -16 35 -71z"/>
<path d="M4791 10374 c-33 -42 -25 -49 15 -15 28 26 39 30 50 20 29 -24 15
-60 -57 -143 l-71 -81 73 -3 c61 -2 76 0 86 14 7 10 13 20 13 23 0 3 -28 4
-62 3 l-63 -4 56 54 c103 97 112 158 24 158 -35 0 -48 -5 -64 -26z"/>
<path d="M5158 10393 c-20 -5 -23 -14 -9 -28 13 -15 -40 -181 -64 -199 -18
-14 -15 -15 43 -16 40 0 61 4 57 10 -3 6 -13 10 -21 10 -8 0 -14 5 -14 11 0
11 45 174 56 202 6 17 -9 20 -48 10z"/>
<path d="M5650 10370 c-26 -37 -15 -39 21 -4 29 28 55 27 65 -1 13 -34 -10
-72 -84 -142 l-77 -73 82 0 c64 0 82 3 87 16 10 27 7 29 -46 25 l-53 -3 68 63
c54 52 67 70 67 95 0 41 -16 54 -66 54 -36 0 -46 -5 -64 -30z"/>
<path d="M5891 10386 c-13 -7 -36 -32 -52 -56 -38 -56 -40 -126 -6 -166 30
-35 61 -28 111 23 99 102 57 260 -53 199z m65 -31 c13 -51 -34 -177 -72 -192
-51 -19 -37 135 18 205 18 21 47 14 54 -13z"/>
<path d="M6115 10385 c-16 -7 -24 -14 -17 -14 18 -1 15 -31 -14 -121 -19 -60
-31 -83 -47 -90 -16 -6 -4 -9 46 -9 43 -1 66 3 62 9 -3 6 -13 10 -21 10 -8 0
-14 2 -14 6 0 13 52 190 61 206 12 22 -11 24 -56 3z"/>
<path d="M6315 10367 c-57 -38 -85 -86 -85 -142 0 -88 63 -114 126 -51 64 64
41 155 -36 141 l-35 -7 20 22 c11 12 37 31 58 41 20 11 37 22 37 24 0 15 -44
1 -85 -28z m33 -106 c7 -66 -40 -128 -75 -100 -19 16 -13 78 12 115 24 37 59
29 63 -15z"/>
<path d="M3862 10355 c-40 -28 -65 -61 -59 -78 2 -7 10 0 17 15 13 27 60 67
60 51 0 -38 -47 -188 -63 -204 l-21 -19 30 1 c36 2 95 16 72 18 -27 2 -30 18
-14 69 9 26 22 75 30 110 13 57 13 62 -2 62 -10 -1 -32 -12 -50 -25z"/>
<path d="M4268 10343 c-16 -2 -28 -9 -28 -14 0 -6 -13 -21 -29 -35 -34 -28
-56 -84 -47 -119 7 -29 46 -42 85 -29 34 12 71 69 71 110 0 29 -4 34 -22 34
-20 0 -23 -6 -25 -42 -5 -71 -55 -119 -69 -64 -7 28 19 94 40 102 9 3 13 10
10 15 -3 5 6 14 20 21 14 6 26 15 26 20 0 4 -1 7 -2 7 -2 -1 -15 -4 -30 -6z"/>
<path d="M4950 10265 c0 -11 12 -15 45 -15 33 0 45 4 45 15 0 11 -12 15 -45
15 -33 0 -45 -4 -45 -15z"/>
<path d="M5500 10265 c0 -11 11 -15 40 -15 29 0 40 4 40 15 0 11 -11 15 -40
15 -29 0 -40 -4 -40 -15z"/>
<path d="M4351 10187 c-15 -15 -14 -34 2 -39 20 -8 37 2 37 22 0 22 -23 33
-39 17z"/>
<path d="M5071 9918 c-1 -9 -4 -25 -7 -35 -5 -15 -4 -15 5 -3 9 13 11 12 11
-4 0 -11 3 -17 6 -14 3 3 1 21 -5 39 -5 19 -10 26 -10 17z"/>
<path d="M5182 9870 c0 -14 2 -19 5 -12 2 6 2 18 0 25 -3 6 -5 1 -5 -13z"/>
<path d="M4830 9865 c0 -5 5 -17 10 -25 5 -8 10 -10 10 -5 0 6 -5 17 -10 25
-5 8 -10 11 -10 5z"/>
<path d="M4941 9854 c0 -11 3 -14 6 -6 3 7 2 16 -1 19 -3 4 -6 -2 -5 -13z"/>
<path d="M5293 9845 c-6 -14 -7 -23 -2 -19 13 8 31 44 22 44 -4 0 -13 -11 -20
-25z"/>
<path d="M4722 9806 c6 -14 17 -27 25 -30 9 -4 7 4 -7 24 -26 36 -33 39 -18 6z"/>
<path d="M5387 9750 c-25 -38 -41 -70 -36 -70 5 0 9 4 9 9 0 4 11 20 25 35 27
30 59 85 52 92 -2 2 -25 -27 -50 -66z"/>
<path d="M3894 9766 c-74 -48 -175 -121 -202 -147 -40 -37 -104 -134 -128
-194 -14 -35 -17 -38 -24 -20 -5 11 -9 15 -9 8 -1 -7 -8 -10 -16 -7 -10 4 -15
0 -15 -14 0 -12 -11 -51 -25 -89 -27 -75 -64 -298 -72 -435 -4 -69 -2 -90 9
-102 15 -14 33 -94 24 -103 -2 -2 -7 14 -11 36 -4 23 -10 43 -15 46 -16 10
-19 -44 -5 -99 12 -47 13 -60 2 -69 -22 -20 -56 -37 -75 -37 -10 0 -27 -6 -37
-14 -17 -12 -17 -16 -5 -31 8 -10 10 -19 4 -23 -25 -19 -54 -94 -54 -142 0
-62 19 -105 66 -151 34 -33 38 -34 115 -34 80 0 81 0 114 37 61 67 73 164 26
233 -27 40 -27 42 -10 54 29 17 23 37 -21 68 -22 15 -40 31 -40 35 0 4 23 28
51 55 56 53 80 87 54 77 -34 -13 -12 25 50 86 59 58 135 170 135 199 0 6 -6
11 -14 11 -9 0 -12 -7 -10 -17 4 -13 -8 -26 -38 -45 -71 -44 -117 -82 -124
-101 -3 -10 -8 -16 -11 -14 -2 3 2 18 11 35 8 16 12 32 9 36 -10 10 44 61 90
84 48 24 83 58 121 119 32 52 33 62 4 37 l-23 -19 21 25 c21 25 64 109 64 125
0 5 -5 4 -12 -3 -16 -16 -33 -15 -19 1 6 8 8 16 5 19 -3 4 1 19 10 35 8 16 17
53 21 83 3 29 10 60 14 69 13 25 33 112 36 152 1 19 14 65 29 101 14 37 26 71
26 77 0 20 -27 11 -96 -33z m-105 -103 c-7 -10 -21 -27 -30 -38 -26 -32 -41
-86 -28 -101 8 -10 17 0 40 45 16 33 37 65 47 72 14 11 15 11 5 -1 -16 -18
-17 -34 -1 -24 7 4 8 3 4 -5 -4 -6 -11 -9 -14 -7 -4 2 -18 -14 -30 -37 l-23
-42 23 28 c28 32 43 36 28 6 -7 -11 -9 -23 -7 -26 3 -3 13 9 22 26 17 33 28
42 18 14 -11 -31 -35 -63 -43 -58 -4 3 -14 -3 -21 -13 -13 -15 -12 -16 4 -3
24 19 21 3 -7 -33 -26 -35 -70 -130 -55 -121 5 4 19 25 30 47 11 22 33 52 47
66 15 14 21 22 14 17 -11 -6 -12 -3 -3 13 6 12 17 24 24 28 9 5 9 4 0 -7 -15
-16 -17 -33 -3 -24 14 9 13 -8 -2 -23 -9 -9 -9 -12 3 -12 9 0 10 -3 3 -8 -6
-4 -23 -26 -38 -49 -14 -24 -42 -53 -61 -65 -38 -25 -81 -108 -101 -193 -6
-27 -16 -63 -22 -80 -36 -106 -53 -164 -58 -189 -3 -16 -10 -40 -15 -53 -5
-14 -7 -29 -3 -34 3 -5 0 -9 -5 -9 -6 0 -11 -9 -11 -20 0 -11 -4 -20 -10 -20
-5 0 -10 -8 -11 -17 -1 -10 -6 -2 -13 17 -6 19 -15 42 -20 50 -9 13 -8 13 9 0
17 -14 18 -13 12 15 -3 17 -17 64 -31 105 -28 81 -31 93 -16 70 7 -10 8 0 5
35 -4 46 -4 47 5 15 5 -19 12 -57 14 -83 4 -45 11 -66 19 -56 2 2 1 38 -3 79
-4 41 -6 76 -5 78 6 7 25 -100 25 -138 0 -46 15 -53 24 -12 7 28 0 67 -29 182
-21 82 -22 162 -2 220 l15 45 1 -71 c1 -38 5 -74 11 -80 5 -5 17 -52 26 -103
12 -71 13 -103 5 -134 -14 -58 -6 -58 13 1 13 39 15 59 7 93 -6 24 -10 98 -10
164 1 72 4 108 9 90 7 -30 7 -30 13 -5 13 52 29 146 29 170 -1 25 -1 25 8 3 5
-13 14 -23 19 -23 5 0 11 -12 13 -27 2 -14 8 -28 13 -30 6 -2 9 28 7 80 -2 45
1 95 7 110 13 33 36 37 25 5 -3 -13 -3 -20 1 -15 5 4 9 16 10 27 1 10 17 35
36 54 35 37 62 49 38 19z m-9 -328 c-24 -25 -41 -48 -37 -51 4 -4 1 -14 -6
-23 -10 -13 -7 -13 13 2 14 9 34 22 45 27 19 10 19 10 2 -3 -9 -8 -15 -21 -12
-29 4 -10 -12 -30 -44 -58 -28 -23 -49 -45 -46 -50 2 -4 -4 -15 -15 -25 -32
-29 -23 -39 14 -16 18 12 36 21 40 21 10 0 -16 -42 -49 -79 -29 -32 -29 -33
-5 -21 18 10 13 0 -21 -37 -48 -51 -82 -106 -73 -116 3 -3 -4 -22 -15 -44 -22
-42 -27 -40 -10 4 6 15 12 37 14 48 2 11 14 49 25 85 12 36 27 79 32 95 6 17
13 48 17 70 13 71 61 163 96 185 18 11 41 32 50 46 9 14 19 23 23 20 3 -4 -14
-26 -38 -51z m-41 -164 c-35 -30 -49 -25 -15 5 15 14 31 23 34 20 2 -3 -6 -14
-19 -25z m-299 -281 c0 -13 -1 -13 -10 0 -5 8 -10 22 -10 30 0 13 1 13 10 0 5
-8 10 -22 10 -30z m30 -207 c0 -25 -3 -43 -7 -39 -10 10 -10 86 0 86 4 0 7
-21 7 -47z m53 22 c-3 -9 -8 -14 -10 -11 -3 3 -2 9 2 15 9 16 15 13 8 -4z
m-26 -62 c-3 -10 -5 -4 -5 12 0 17 2 24 5 18 2 -7 2 -21 0 -30z m-21 -128
c-11 -8 -33 -15 -50 -15 -40 0 -22 17 24 23 19 2 37 4 40 5 3 1 -4 -5 -14 -13z
m-95 -50 c-18 -8 -41 -15 -51 -15 -10 0 -21 -6 -23 -12 -3 -8 -6 -6 -6 4 -1
18 42 36 89 37 22 0 22 -1 -9 -14z m-21 -65 c0 -5 -6 -10 -14 -10 -9 0 -15
-14 -18 -41 -3 -37 3 -65 27 -122 6 -14 0 -12 -20 7 -37 34 -45 25 -15 -17
l23 -32 -23 22 c-39 37 -62 131 -44 178 5 13 8 14 15 3 7 -10 9 -9 9 5 0 12 8
17 30 17 17 0 30 -4 30 -10z m37 -236 c-12 -12 -37 5 -30 21 5 15 7 15 21 1 9
-9 13 -18 9 -22z"/>
<path d="M3789 9418 c-17 -24 -18 -29 -6 -19 18 14 42 51 33 51 -3 0 -15 -15
-27 -32z"/>
<path d="M3671 9318 c0 -9 -4 -25 -7 -35 -5 -14 -4 -15 5 -7 7 7 11 22 8 35
-2 13 -5 16 -6 7z"/>
<path d="M3620 9301 c0 -12 5 -21 10 -21 6 0 10 6 10 14 0 8 -4 18 -10 21 -5
3 -10 -3 -10 -14z"/>
<path d="M3531 8974 c0 -11 3 -14 6 -6 3 7 2 16 -1 19 -3 4 -6 -2 -5 -13z"/>
<path d="M3491 8754 c0 -11 3 -14 6 -6 3 7 2 16 -1 19 -3 4 -6 -2 -5 -13z"/>
<path d="M4654 9699 c14 -25 36 -54 48 -65 17 -14 15 -11 -5 14 -15 19 -25 37
-23 40 2 4 -7 18 -21 32 l-24 25 25 -46z"/>
<path d="M5485 9699 c-48 -37 -55 -44 -33 -36 9 3 18 3 20 -1 2 -4 18 9 37 30
40 45 31 48 -24 7z"/>
<path d="M4690 9676 c0 -2 7 -9 15 -16 13 -11 14 -10 9 4 -5 14 -24 23 -24 12z"/>
<path d="M4590 9605 c27 -27 46 -41 49 -33 4 13 -65 78 -83 78 -5 0 10 -20 34
-45z"/>
<path d="M5520 9574 c-54 -40 -68 -54 -50 -52 26 4 140 84 140 99 0 17 -15 9
-90 -47z"/>
<path d="M4729 9592 c5 -10 18 -25 28 -33 12 -10 11 -5 -6 19 -24 35 -38 43
-22 14z"/>
<path d="M4486 9541 c32 -31 110 -91 119 -91 5 0 -3 9 -18 19 -16 10 -42 33
-57 50 -16 17 -35 31 -41 31 -8 0 -9 -3 -3 -9z"/>
<path d="M5605 9496 c-13 -13 -34 -31 -47 -40 -17 -13 -19 -16 -6 -16 9 0 38
18 63 40 28 24 40 40 30 40 -9 0 -27 -11 -40 -24z"/>
<path d="M4461 9446 c7 -7 109 -44 109 -40 0 7 -83 44 -99 44 -8 0 -12 -2 -10
-4z"/>
<path d="M4435 9430 c3 -5 14 -10 23 -10 15 0 15 2 2 10 -20 13 -33 13 -25 0z"/>
<path d="M4500 9405 c14 -8 30 -14 35 -14 6 0 -1 6 -15 14 -14 8 -29 14 -35
14 -5 0 1 -6 15 -14z"/>
<path d="M5637 9410 c-20 -4 -39 -9 -42 -12 -11 -10 81 -1 100 10 l20 11 -20
0 c-11 -1 -37 -5 -58 -9z"/>
<path d="M4658 9353 c6 -2 18 -2 25 0 6 3 1 5 -13 5 -14 0 -19 -2 -12 -5z"/>
<path d="M4470 9321 c8 -5 31 -11 50 -15 l35 -6 -35 14 c-41 17 -75 21 -50 7z"/>
<path d="M4618 9293 c7 -3 16 -2 19 1 4 3 -2 6 -13 5 -11 0 -14 -3 -6 -6z"/>
<path d="M5633 9273 c9 -2 23 -2 30 0 6 3 -1 5 -18 5 -16 0 -22 -2 -12 -5z"/>
<path d="M4573 9243 c9 -2 23 -2 30 0 6 3 -1 5 -18 5 -16 0 -22 -2 -12 -5z"/>
<path d="M6650 8542 c0 -12 19 -26 26 -19 2 2 -2 10 -11 17 -9 8 -15 8 -15 2z"/>
<path d="M6341 8426 c17 -16 199 -79 206 -72 3 3 -6 10 -21 16 -14 5 -38 15
-53 21 -70 27 -146 47 -132 35z"/>
<path d="M3280 7395 l0 -475 482 2 481 3 1 473 1 472 -482 0 -483 0 0 -475z
m517 363 c31 -34 43 -63 43 -101 0 -19 3 -48 6 -64 l6 -29 86 28 c118 39 149
40 174 6 32 -41 17 -73 -69 -156 l-76 -73 22 -16 c13 -8 50 -38 82 -65 65 -54
76 -86 37 -112 -30 -19 -150 -6 -207 23 l-39 20 -4 -54 c-6 -69 -59 -180 -90
-188 -13 -4 -29 0 -40 10 -23 21 -55 108 -64 172 -4 28 -7 51 -8 51 0 0 -25
-9 -53 -20 -121 -46 -223 -33 -223 28 0 20 14 41 53 79 28 28 65 57 81 65 l29
15 -47 39 c-58 48 -116 121 -116 146 0 60 87 74 200 34 l68 -25 6 37 c11 69
27 111 52 142 31 36 63 39 91 8z"/>
<path d="M3732 7725 c-20 -25 -42 -104 -42 -149 0 -23 33 -46 66 -46 8 0 13
-4 9 -10 -3 -5 8 -5 26 2 l31 11 -7 61 c-6 61 -34 138 -53 150 -6 3 -19 -5
-30 -19z"/>
<path d="M3427 7577 c-17 -11 -16 -14 5 -43 13 -17 49 -54 80 -83 l57 -52 31
17 c24 15 30 25 32 56 0 21 1 43 2 50 1 10 -151 68 -179 68 -6 0 -19 -6 -28
-13z"/>
<path d="M3967 7566 c-60 -21 -117 -50 -117 -60 0 -15 36 -69 57 -86 l25 -20
42 29 c62 43 118 108 114 134 -4 31 -39 31 -121 3z"/>
<path d="M3652 7500 c0 -14 2 -19 5 -12 2 6 2 18 0 25 -3 6 -5 1 -5 -13z"/>
<path d="M3680 7507 c0 -1 4 -18 10 -36 5 -20 6 -39 1 -45 -17 -22 0 -71 31
-89 38 -22 59 -21 97 1 27 15 31 23 31 58 0 54 -36 92 -70 74 -18 -10 -20 -14
-9 -21 8 -5 -2 -6 -26 -2 -50 7 -53 10 -30 27 18 13 18 14 -3 25 -20 11 -32
14 -32 8z"/>
<path d="M3816 7496 c3 -9 11 -16 16 -16 13 0 5 23 -10 28 -7 2 -10 -2 -6 -12z"/>
<path d="M3860 7396 c0 -9 7 -16 16 -16 9 0 14 5 12 12 -6 18 -28 21 -28 4z"/>
<path d="M3625 7370 c-7 -12 2 -30 16 -30 5 0 9 9 9 20 0 21 -15 27 -25 10z"/>
<path d="M3477 7290 c-58 -57 -69 -73 -57 -80 37 -23 173 3 211 41 32 32 25
66 -21 89 -21 11 -44 20 -50 20 -6 0 -44 -32 -83 -70z"/>
<path d="M3893 7337 c-45 -31 -43 -60 6 -93 41 -27 155 -52 184 -41 22 8 22
23 0 41 -10 8 -46 37 -79 65 -34 28 -66 51 -70 50 -5 0 -24 -10 -41 -22z"/>
<path d="M3676 7307 c-7 -26 5 -40 27 -31 22 8 21 26 -2 41 -16 10 -20 9 -25
-10z"/>
<path d="M3825 7300 c-3 -5 1 -10 9 -10 9 0 16 5 16 10 0 6 -4 10 -9 10 -6 0
-13 -4 -16 -10z"/>
<path d="M3722 7253 c-33 -16 -33 -17 -27 -67 3 -28 18 -80 32 -115 l27 -64
22 27 c24 27 44 84 44 123 0 12 5 34 10 48 9 23 7 30 -12 46 -28 23 -53 23
-96 2z"/>
<path d="M4360 7320 c0 -6 7 -13 15 -16 8 -4 15 -13 15 -21 0 -7 11 -24 24
-36 13 -12 26 -31 29 -42 4 -16 5 -14 6 7 1 15 -10 39 -25 57 -31 37 -23 41
13 6 29 -27 44 -26 22 1 -13 16 -12 16 11 4 30 -15 59 -50 60 -70 0 -8 -9 -2
-21 15 -12 17 -18 21 -14 10 4 -11 11 -35 15 -54 5 -19 17 -46 27 -60 14 -19
17 -35 13 -58 -8 -38 1 -61 17 -41 12 14 23 158 12 158 -4 0 -16 20 -28 45
-24 51 -47 69 -111 85 -25 6 -53 13 -62 16 -10 3 -18 0 -18 -6z"/>
<path d="M4425 7147 c5 -65 11 -85 37 -122 38 -53 33 -78 -13 -68 -23 4 -30 3
-25 -5 4 -7 16 -12 27 -12 24 0 24 -22 2 -57 -11 -17 -17 -47 -18 -82 0 -49 5
-64 38 -114 30 -45 44 -57 65 -58 25 -1 25 -2 -8 -13 -53 -17 -60 -24 -60 -60
0 -42 34 -86 65 -86 18 0 25 -7 30 -32 7 -37 121 -397 168 -533 29 -83 62
-135 86 -135 5 0 17 8 27 17 21 21 16 98 -21 358 -15 99 -29 213 -32 253 -3
39 -10 72 -16 72 -13 0 -6 -71 32 -333 35 -240 38 -340 8 -345 -13 -3 -24 11
-41 51 -23 51 -155 452 -193 585 -15 52 -21 62 -40 62 -32 0 -55 28 -51 64 3
26 11 34 52 54 39 19 68 24 143 25 88 2 96 0 114 -21 17 -21 17 -26 4 -46 -8
-12 -13 -25 -10 -28 3 -2 -4 -13 -15 -23 -11 -10 -20 -23 -20 -28 0 -24 61 50
72 86 11 37 10 41 -13 58 -52 39 -61 51 -50 62 6 6 11 38 11 70 0 52 -3 62
-28 85 -44 42 -61 74 -67 127 -4 38 -11 54 -31 70 -25 20 -27 25 -21 78 4 31
3 58 -1 61 -31 19 -52 -66 -27 -113 8 -17 20 -31 25 -31 6 0 11 -12 11 -27 1
-17 3 -21 6 -10 5 18 23 24 23 7 0 -6 -7 -27 -15 -47 -14 -34 -21 -103 -10
-103 3 0 14 6 25 12 16 11 22 9 34 -7 8 -11 12 -23 9 -28 -3 -5 -11 0 -19 10
-12 16 -13 16 -14 1 0 -9 4 -19 9 -22 4 -3 11 -19 14 -36 4 -17 12 -29 19 -28
8 2 12 -5 10 -20 -2 -13 3 -25 12 -28 23 -9 20 -24 -4 -24 -11 0 -20 -6 -20
-14 0 -16 -101 -37 -143 -29 -22 4 -27 11 -27 35 0 18 -4 27 -11 22 -6 -3 -8
-17 -5 -30 13 -52 -15 -24 -71 70 -16 26 -16 59 -2 109 8 32 13 36 25 26 8 -6
14 -17 14 -25 0 -7 9 -18 20 -24 14 -7 20 -7 20 0 0 5 -4 10 -9 10 -5 0 -11 8
-14 18 -2 9 -8 26 -13 37 -7 18 -6 19 11 5 17 -14 18 -13 11 5 -4 11 -9 29
-10 41 -3 20 -11 39 -50 109 -9 17 -16 49 -16 71 0 23 -7 55 -16 70 -15 28
-15 26 -9 -49z m245 -240 c0 -5 -4 -5 -10 -2 -5 3 -10 14 -10 23 0 15 2 15 10
2 5 -8 10 -19 10 -23z"/>
<path d="M4471 7184 c0 -11 3 -14 6 -6 3 7 2 16 -1 19 -3 4 -6 -2 -5 -13z"/>
<path d="M4472 7100 c0 -14 2 -19 5 -12 2 6 2 18 0 25 -3 6 -5 1 -5 -13z"/>
<path d="M6520 7916 c-11 -21 -10 -37 9 -110 26 -105 26 -132 1 -187 -24 -53
-27 -154 -6 -204 24 -56 68 -103 116 -124 l45 -20 70 23 c79 25 115 64 115
122 0 84 -49 126 -155 134 -68 5 -70 6 -73 34 -2 15 6 64 18 109 26 95 21 133
-22 183 -29 33 -76 64 -96 64 -5 0 -14 -11 -22 -24z m66 -42 c27 -7 44 -44 44
-94 0 -44 -29 -126 -40 -113 -12 13 -40 139 -40 178 0 37 2 38 36 29z m32
-269 c0 -14 -5 -28 -10 -31 -5 -3 2 -16 17 -29 21 -21 25 -33 25 -83 0 -41 5
-64 15 -72 13 -11 14 -5 9 51 l-5 64 40 -45 c23 -25 51 -64 63 -88 26 -48 21
-56 -39 -68 -46 -9 -63 1 -63 34 0 16 -7 35 -15 42 -17 14 -19 7 -6 -36 8 -28
7 -31 -10 -27 -37 10 -73 73 -77 136 -4 50 0 69 24 118 15 33 29 59 30 59 1 0
2 -11 2 -25z m158 -95 c42 -15 78 -71 69 -109 -4 -17 -11 -31 -15 -31 -5 0
-28 28 -51 63 -24 34 -46 64 -51 65 -13 6 -9 22 6 22 7 0 26 -5 42 -10z m34
-146 c0 -20 -7 -17 -20 6 -9 16 -8 18 5 14 8 -4 15 -12 15 -20z"/>
<path d="M6334 7467 c3 -22 16 -53 29 -70 24 -33 47 -106 47 -152 0 -20 -7
-29 -30 -38 -16 -6 -30 -16 -30 -21 0 -5 -7 -18 -17 -28 -26 -29 -8 -32 42 -8
60 29 77 47 66 68 -5 9 -19 63 -32 119 -17 76 -30 110 -52 135 l-29 33 6 -38z"/>
<path d="M5931 7329 l-62 -91 37 -53 c20 -30 40 -68 44 -87 l8 -33 1 30 c0 17
-8 48 -19 70 -11 22 -19 47 -20 57 0 15 53 68 69 68 4 0 8 6 9 13 0 6 4 36 8
65 4 33 3 52 -3 52 -6 0 -38 -41 -72 -91z"/>
<path d="M6299 7293 c-13 -16 -12 -17 4 -4 9 7 17 15 17 17 0 8 -8 3 -21 -13z"/>
<path d="M6211 7234 c-34 -25 -60 -48 -57 -51 4 -4 57 34 121 89 27 24 -9 2
-64 -38z"/>
<path d="M6857 7225 c11 -44 6 -83 -14 -118 -26 -44 -43 -46 -43 -4 0 56 -11
97 -27 97 -7 0 -13 6 -11 14 6 28 -10 20 -46 -22 -35 -43 -47 -82 -25 -82 6 0
24 -10 41 -21 l30 -22 -138 -71 c-161 -83 -237 -127 -230 -133 2 -2 46 20 98
50 78 45 240 121 336 158 12 5 27 21 33 36 6 16 16 38 21 49 8 16 5 31 -11 60
-19 35 -20 36 -14 9z m-117 -65 c0 -5 -2 -10 -4 -10 -2 0 -12 -3 -22 -7 -16
-6 -17 -5 -4 10 17 19 30 22 30 7z"/>
<path d="M6066 7164 c4 -22 0 -34 -15 -48 -12 -11 -21 -25 -21 -33 0 -7 -8
-26 -17 -41 -11 -18 1 -10 35 23 30 28 52 43 52 35 0 -8 10 -26 21 -40 12 -15
5 5 -17 50 -43 88 -46 93 -38 54z"/>
<path d="M6460 7061 c-96 -48 -194 -99 -217 -111 -24 -13 -45 -21 -48 -18 -3
3 -9 25 -14 49 l-9 44 -1 -52 c-1 -41 -5 -55 -21 -63 -24 -13 -26 -30 -5 -30
8 0 15 -7 15 -16 0 -8 4 -12 10 -9 5 3 12 -7 16 -22 3 -15 8 -34 10 -41 2 -7
-1 -22 -6 -32 -8 -15 -17 -18 -45 -13 -37 6 -43 -3 -25 -38 7 -12 21 -19 40
-19 44 0 59 9 80 51 13 24 37 48 65 65 25 14 45 28 45 30 0 9 -98 -46 -102
-57 -8 -23 -36 38 -39 86 l-4 48 60 32 c33 17 134 70 225 118 91 48 161 87
155 87 -5 0 -89 -40 -185 -89z"/>
<path d="M5490 7057 c-49 -18 -120 -68 -158 -112 -115 -131 -134 -341 -45
-505 56 -104 132 -172 232 -206 30 -11 56 -24 58 -30 2 -6 -23 -21 -55 -33
-89 -32 -142 -74 -142 -112 0 -27 6 -33 54 -55 29 -13 80 -29 112 -35 81 -15
268 -6 319 15 82 35 106 83 63 123 -31 28 -51 37 -131 58 -67 17 -90 36 -69
57 6 6 47 14 93 19 95 9 129 29 94 55 -12 9 -30 12 -48 8 -26 -5 -24 -2 23 45
30 30 64 79 83 119 30 62 32 75 32 172 0 101 -1 108 -34 168 -19 35 -53 79
-75 99 -85 73 -217 120 -309 108 l-52 -6 28 18 c15 10 26 22 24 28 -5 15 -58
16 -97 2z m282 -129 c48 -23 90 -49 93 -57 5 -12 2 -12 -12 1 -10 9 -49 31
-88 50 -64 30 -78 33 -160 33 -53 0 -99 -6 -112 -13 -13 -7 -23 -10 -23 -7 0
16 73 34 140 35 69 0 82 -3 162 -42z m-337 -38 c-3 -5 -11 -10 -16 -10 -6 0
-7 5 -4 10 3 6 11 10 16 10 6 0 7 -4 4 -10z m-40 -50 c-9 -16 -18 -30 -21 -30
-2 0 2 14 11 30 9 17 18 30 21 30 2 0 -2 -13 -11 -30z m506 -7 c13 -16 12 -17
-3 -4 -10 7 -18 15 -18 17 0 8 8 3 21 -13z m-527 -298 c34 -72 90 -132 155
-165 31 -16 49 -29 40 -30 -8 0 -35 13 -60 29 -110 69 -167 164 -174 289 l-4
77 10 -75 c5 -41 20 -97 33 -125z m359 140 c-3 -9 -8 -14 -10 -11 -3 3 -2 9 2
15 9 16 15 13 8 -4z m224 -57 c-2 -13 -4 -3 -4 22 0 25 2 35 4 23 2 -13 2 -33
0 -45z m-22 -134 c-9 -25 -28 -58 -42 -75 -27 -31 -81 -64 -91 -55 -3 3 0 6 6
6 37 0 116 102 128 166 5 24 9 32 12 20 2 -10 -4 -38 -13 -62z m-347 46 c-7
-10 -14 -17 -17 -15 -4 4 18 35 25 35 2 0 -1 -9 -8 -20z m39 -196 c-3 -3 -12
-4 -19 -1 -8 3 -5 6 6 6 11 1 17 -2 13 -5z"/>
<path d="M5911 6977 c-15 -15 -14 -57 2 -57 21 0 74 37 74 52 0 17 -60 21 -76
5z"/>
<path d="M1942 9273 c-34 -50 -56 -139 -72 -303 -8 -82 -29 -213 -47 -300 -4
-18 -9 -5 -18 45 -13 76 -40 137 -88 200 -17 22 -32 42 -34 44 -2 2 -5 2 -8
-1 -4 -3 3 -32 14 -64 30 -90 43 -280 33 -484 -4 -96 -11 -168 -14 -160 -3 8
-18 53 -33 100 -42 129 -71 178 -214 360 -35 44 -32 15 8 -66 48 -99 73 -177
116 -374 46 -212 57 -278 50 -300 -3 -11 -1 -30 6 -42 7 -14 7 -19 1 -13 -6 6
-18 28 -27 50 -14 35 -14 38 0 21 24 -31 18 -10 -17 62 -18 36 -56 89 -83 116
-61 61 -163 116 -214 116 l-36 -1 30 -25 c103 -86 133 -115 173 -169 61 -83
124 -216 176 -375 24 -74 43 -136 41 -138 -1 -1 -19 23 -41 53 -47 68 -98 111
-187 154 -59 29 -167 53 -167 38 0 -3 27 -20 60 -38 72 -38 130 -93 178 -168
68 -106 322 -634 322 -670 0 -3 -19 13 -42 35 -76 72 -128 96 -273 124 -33 7
-93 30 -134 51 -40 22 -75 38 -77 36 -2 -2 11 -23 29 -46 36 -47 127 -112 267
-191 119 -67 191 -121 263 -200 79 -85 170 -231 154 -247 -3 -2 -49 40 -104
94 -117 115 -180 155 -287 183 -95 24 -116 25 -116 5 0 -8 7 -15 15 -15 9 0
45 -13 80 -29 97 -44 198 -146 320 -325 74 -109 168 -216 245 -280 38 -32 70
-61 70 -64 0 -2 -15 -2 -32 2 -18 4 -103 16 -188 27 -85 10 -163 22 -174 25
-13 4 -17 2 -14 -7 8 -24 82 -58 235 -110 142 -48 270 -109 342 -163 20 -15
28 -26 20 -26 -8 0 -24 7 -35 15 -10 8 -26 15 -34 15 -8 0 -26 6 -40 13 -46
24 -123 41 -189 40 -107 0 -261 -14 -261 -24 0 -14 67 -38 195 -69 66 -17 161
-40 210 -52 98 -23 255 -85 255 -99 0 -12 -18 -11 -65 6 -48 17 -202 20 -273
4 -72 -15 -152 -66 -179 -114 -12 -22 -20 -41 -18 -43 2 -2 22 10 45 27 54 39
171 66 249 58 60 -7 129 -27 198 -58 24 -10 72 -31 107 -45 60 -24 103 -54 78
-54 -6 0 -14 5 -17 10 -9 15 -172 4 -241 -15 -33 -10 -77 -27 -99 -40 -44 -26
-115 -95 -98 -95 7 0 14 4 17 9 3 5 39 19 78 32 87 27 229 30 293 6 22 -8 83
-30 135 -49 104 -38 235 -101 245 -118 4 -6 18 -16 32 -21 14 -5 23 -12 20
-15 -9 -9 -189 56 -254 92 -82 45 -108 46 -65 1 l32 -33 -61 -12 c-70 -13
-161 -63 -191 -104 -23 -32 -22 -33 25 -13 40 17 176 20 242 6 22 -5 64 -14
94 -20 30 -6 59 -15 65 -20 6 -5 55 -24 109 -41 53 -18 97 -36 97 -40 0 -9
-28 -16 -105 -25 -76 -10 -285 -73 -285 -86 0 -3 37 -9 83 -12 45 -3 127 -13
182 -21 55 -9 155 -16 223 -16 119 0 151 -10 79 -25 -33 -7 -144 -47 -184 -67
-12 -6 -24 -17 -27 -25 -5 -11 -1 -11 16 -2 29 16 232 6 323 -16 141 -33 152
-37 130 -46 -11 -4 -37 -8 -58 -8 -31 -1 -167 -52 -167 -63 0 -2 66 -3 148 -3
168 0 192 -5 227 -43 23 -25 33 -52 19 -52 -14 0 -74 33 -74 41 0 4 -33 8 -72
8 -174 0 -357 22 -490 58 -53 14 -56 16 -49 42 9 35 8 42 -13 73 -21 32 -95
69 -186 93 -80 22 -282 31 -330 16 -31 -10 -28 -10 29 -6 58 5 65 3 83 -20 11
-14 24 -25 31 -25 6 0 30 -9 53 -20 23 -12 70 -26 103 -32 66 -12 85 -29 24
-21 -40 6 -83 17 -214 59 -97 30 -135 28 -190 -9 -28 -19 -43 -45 -85 -147
-28 -69 -74 -173 -102 -232 -29 -58 -52 -119 -52 -135 0 -15 11 -46 25 -68 14
-22 24 -33 23 -25 -2 8 44 108 102 222 l104 206 -22 45 c-24 48 -27 74 -12 97
7 11 10 6 10 -21 0 -84 113 -192 262 -249 133 -51 233 -53 265 -4 15 24 15 26
-3 44 -11 11 -52 26 -99 35 -44 9 -91 23 -105 31 l-25 15 25 -6 c48 -11 185
-37 202 -38 9 -1 15 -3 13 -5 -2 -2 1 -15 6 -29 13 -34 -10 -70 -56 -89 -28
-11 -49 -12 -112 -3 -43 6 -82 13 -88 16 -5 4 -7 3 -3 -1 3 -4 -3 -19 -15 -33
-12 -13 -33 -44 -47 -67 -14 -24 -42 -73 -63 -109 -21 -36 -45 -71 -53 -78
-19 -16 -49 -70 -46 -85 1 -6 -5 -17 -13 -24 -14 -12 -37 -11 -80 4 -13 5 -12
2 5 -8 40 -25 149 -56 196 -56 85 0 132 35 183 138 21 41 22 42 49 28 50 -25
69 -27 86 -11 18 19 22 40 5 29 -18 -11 -4 102 17 134 23 34 65 153 58 163 -3
5 -1 17 5 27 19 36 98 9 86 -29 -4 -13 -1 -19 8 -19 8 0 17 9 20 19 7 30 66
61 113 61 56 0 161 -33 203 -64 18 -14 38 -23 45 -20 7 3 21 -5 31 -16 19 -21
19 -21 -10 -15 -17 4 -48 18 -70 30 -22 12 -70 33 -107 45 -59 20 -73 21 -115
11 -74 -18 -81 -25 -63 -58 9 -16 38 -40 65 -55 92 -51 495 -172 427 -129 -11
6 -7 18 18 53 l32 45 116 6 c94 5 130 11 182 32 110 44 189 56 217 34 11 -10
5 -17 -30 -38 -132 -79 -210 -136 -191 -140 10 -2 21 -7 24 -11 6 -8 145 -30
196 -30 40 0 126 37 190 81 23 16 47 29 52 29 6 0 44 -16 86 -36 71 -34 82
-36 149 -32 68 5 156 34 250 83 42 22 64 19 116 -19 67 -49 139 -82 194 -90
65 -10 189 18 251 56 39 23 54 27 70 20 61 -29 129 -36 346 -37 l225 0 55 28
c151 76 159 90 58 107 -30 4 -75 14 -99 22 l-44 13 40 3 c22 2 50 12 62 24 20
19 29 20 137 13 l116 -7 0 -37 c0 -59 19 -108 51 -135 l31 -26 -34 -15 c-29
-13 -30 -14 -9 -15 13 0 49 7 80 16 343 100 448 157 396 214 -31 34 -108 27
-213 -19 -50 -22 -109 -45 -133 -51 -24 -6 -52 -14 -63 -17 -12 -3 -16 -1 -12
6 4 6 17 11 28 11 12 0 72 27 133 59 168 89 223 92 308 13 15 -14 27 -21 27
-14 0 7 7 9 18 5 16 -6 16 -6 0 10 -16 16 -34 74 -26 83 3 2 19 7 38 10 24 5
31 4 26 -5 -4 -6 -3 -18 3 -25 6 -7 12 -26 12 -42 2 -37 21 -94 31 -94 4 0 8
-8 8 -18 0 -10 4 -22 9 -27 6 -6 14 -28 20 -50 5 -22 17 -60 26 -85 9 -24 17
-57 17 -72 l1 -27 35 15 c20 8 42 20 50 26 16 14 29 1 68 -72 30 -57 44 -74
71 -88 45 -24 167 -9 253 32 19 9 26 14 15 10 -60 -17 -73 -16 -80 5 -3 11 -4
24 -1 29 2 4 -8 30 -24 57 -32 55 -120 232 -120 242 0 3 -11 16 -26 29 -22 21
-35 24 -109 24 -93 0 -123 8 -154 41 -48 51 -20 78 110 107 119 26 177 48 162
63 -20 20 -87 28 -153 18 -36 -5 -105 -14 -155 -18 -49 -5 -110 -14 -135 -19
-62 -14 -219 -35 -255 -34 -52 2 -220 -45 -266 -73 -30 -20 -47 -25 -58 -18
-25 16 -23 29 6 42 27 13 27 14 8 25 -28 16 -121 106 -109 106 6 0 14 -4 20
-9 5 -6 25 -6 52 0 29 6 65 6 110 -2 219 -36 303 -43 302 -26 0 4 0 11 0 16 0
15 -104 81 -145 92 -19 6 -35 14 -35 19 0 6 -12 10 -27 11 l-28 1 25 7 c14 4
26 4 28 0 2 -4 9 -6 17 -3 7 3 16 0 20 -6 5 -8 13 -7 28 3 12 8 56 17 97 21
41 3 105 14 142 24 68 18 96 32 65 32 -9 0 -17 4 -17 9 0 9 -135 71 -159 72
-11 0 -10 3 7 11 12 6 22 15 22 20 0 14 78 9 144 -9 63 -18 326 -26 342 -11
21 22 -75 78 -135 78 -22 0 -42 4 -45 9 -4 5 13 7 36 5 l43 -5 -40 16 c-22 9
-51 20 -65 25 -18 6 -20 9 -7 10 9 2 20 3 25 4 4 1 23 6 42 10 19 5 41 12 50
17 8 4 41 15 72 24 32 8 70 26 84 39 l28 23 -70 13 c-38 7 -74 17 -81 22 -6 5
-22 10 -35 12 -44 6 -88 19 -88 26 0 4 42 12 94 18 90 10 165 37 214 77 9 8
28 23 42 33 l24 20 -41 20 c-22 12 -61 26 -87 33 -51 13 -59 30 -21 47 39 18
110 14 187 -9 39 -11 77 -17 86 -13 10 4 55 10 101 13 l85 6 -47 55 c-92 107
-101 114 -176 135 l-70 19 32 14 c17 8 69 20 114 27 45 8 93 19 105 26 27 13
118 100 118 111 0 4 -14 8 -30 8 -17 0 -47 7 -68 16 l-37 15 45 21 c36 16 41
22 27 27 -15 5 -10 11 25 30 24 14 64 38 90 55 59 38 50 56 -27 56 -109 0
-112 22 -11 72 68 33 78 35 123 27 88 -17 144 6 225 94 32 34 57 69 57 77 0
10 -2 11 -6 3 -6 -15 -53 -18 -53 -3 0 6 -22 10 -49 10 -32 0 -53 5 -61 16
-11 13 -10 16 11 21 51 14 179 85 203 114 39 46 34 61 -11 38 -21 -10 -50 -19
-66 -19 l-28 0 30 32 c16 17 51 72 77 122 59 114 110 183 141 190 12 4 23 11
23 16 0 13 -54 3 -112 -21 -26 -10 -53 -19 -62 -19 -8 0 -16 -6 -19 -12 -2 -7
-7 -10 -11 -7 -7 7 38 88 82 147 l25 33 -52 -21 c-68 -26 -108 -47 -116 -60
-3 -5 -15 -15 -27 -21 -15 -8 -19 -8 -14 0 4 6 2 11 -3 11 -21 0 -10 29 18 49
16 12 33 21 39 21 16 0 124 68 155 98 16 15 35 41 42 59 16 39 60 88 190 214
l100 97 -71 7 c-49 5 -87 2 -129 -8 -33 -8 -78 -18 -100 -21 -34 -5 -37 -5
-20 5 33 20 103 101 124 144 28 56 81 325 64 325 -4 0 -24 -24 -43 -53 -48
-72 -164 -211 -178 -215 -15 -3 -15 -2 3 42 8 20 14 55 14 79 -1 24 2 50 6 57
5 9 4 11 -3 6 -7 -4 -12 0 -12 10 0 14 -6 12 -32 -12 -22 -20 -29 -24 -25 -11
4 10 7 23 7 27 0 5 19 15 43 21 60 18 108 55 179 140 68 83 119 134 163 165
l29 21 -55 -2 c-30 -1 -69 -10 -87 -19 l-32 -16 10 27 c6 16 15 37 20 48 32
68 42 111 47 198 4 70 3 97 -5 97 -7 0 -12 -6 -12 -14 0 -8 -4 -16 -9 -18 -9
-3 -108 -88 -143 -123 -11 -11 -36 -42 -55 -70 l-35 -50 6 35 c12 64 17 214 8
245 l-8 30 -26 -26 -26 -26 -7 33 c-6 36 11 80 41 105 9 8 23 29 31 47 16 39
35 263 23 275 -9 10 -7 12 -51 -68 -30 -56 -67 -104 -79 -105 -3 0 -6 33 -7
73 -1 77 -21 172 -47 221 -8 16 -13 33 -10 38 3 4 1 8 -5 8 -6 0 -19 -28 -29
-62 l-18 -63 -39 73 c-35 68 -121 162 -147 162 -7 0 -7 -4 0 -12 6 -7 10 -44
10 -83 1 -76 19 -139 58 -197 13 -21 21 -38 18 -38 -3 0 1 -11 10 -25 18 -28
11 -32 -19 -11 -21 14 -175 29 -175 17 0 -4 13 -17 29 -29 16 -12 35 -38 42
-59 6 -21 34 -82 61 -136 35 -70 45 -99 36 -102 -8 -3 -49 4 -92 15 -44 11
-81 20 -83 20 -9 0 -1 -72 13 -113 11 -33 30 -59 61 -85 25 -20 66 -57 92 -82
l46 -45 -29 -3 c-15 -2 -64 6 -108 18 -44 12 -82 19 -85 17 -4 -5 26 -81 72
-182 25 -57 71 -115 88 -115 7 0 28 -14 47 -30 19 -16 38 -30 41 -30 9 0 43
-79 36 -86 -3 -3 -32 22 -64 55 -31 34 -61 61 -65 61 -5 0 -8 -59 -8 -131 l0
-130 -22 6 c-13 4 -36 17 -53 29 -38 28 -95 57 -95 48 0 -4 17 -56 37 -117 33
-94 45 -117 85 -157 34 -35 42 -48 30 -48 -10 0 -24 6 -30 12 -23 23 -34 -12
-28 -94 3 -47 2 -78 -4 -78 -6 0 -10 4 -10 8 0 10 -50 32 -148 66 l-72 25 6
-42 c13 -100 67 -198 140 -257 24 -19 58 -47 76 -62 18 -15 36 -28 41 -28 11
0 9 -49 -5 -89 -19 -57 -57 -139 -69 -146 -6 -4 3 19 19 50 29 58 29 58 11 94
-10 20 -21 53 -24 74 -5 28 -11 38 -23 36 -31 -3 -35 1 -21 18 12 14 12 16 -1
11 -16 -5 -49 -81 -59 -138 l-7 -35 -32 61 c-18 33 -55 82 -81 108 l-49 48 2
-206 c0 -113 0 -206 -2 -206 -1 0 -19 7 -39 15 -20 8 -38 13 -41 10 -3 -3 7
-27 21 -54 15 -27 27 -57 27 -67 0 -11 12 -44 26 -74 36 -76 45 -108 32 -116
-6 -4 -8 -2 -5 3 7 10 -33 43 -51 43 -9 0 -35 -158 -33 -207 0 -18 -4 -35 -9
-38 -6 -3 -10 -25 -10 -48 -1 -32 -3 -38 -10 -25 -6 9 -9 40 -8 70 2 74 -10
139 -32 168 l-18 24 -26 -83 c-14 -45 -26 -88 -26 -96 0 -8 -4 -16 -9 -20 -9
-5 -36 73 -43 124 -5 37 -25 36 -33 -1 -4 -18 -21 -71 -38 -117 -26 -70 -33
-80 -38 -60 -4 13 -7 36 -8 52 -1 28 -63 161 -80 171 -10 7 -65 -152 -67 -194
0 -14 -1 -56 -2 -93 -1 -39 -6 -66 -11 -62 -5 3 -12 -4 -16 -15 -3 -11 -17
-32 -29 -48 -44 -54 -96 -160 -97 -199 l-1 -38 -8 35 c-5 19 -12 65 -16 103
-5 47 -11 67 -20 67 -8 0 -14 -7 -14 -16 0 -8 -12 -50 -26 -92 -14 -42 -32
-120 -39 -172 -15 -104 -29 -150 -45 -150 -5 0 -10 18 -10 41 0 49 -19 129
-31 129 -5 0 -9 -6 -9 -14 0 -8 -16 -55 -35 -105 -28 -71 -35 -104 -35 -158 0
-50 -8 -91 -30 -153 -16 -47 -30 -86 -30 -88 0 -2 20 17 45 44 25 26 45 43 45
38 0 -14 -90 -100 -91 -89 -1 6 -2 51 -3 101 -1 82 -4 95 -29 133 l-29 43 -22
-48 c-13 -27 -57 -87 -99 -133 -103 -113 -148 -203 -162 -323 -6 -56 -18 -73
-66 -90 -14 -6 -15 -2 -7 30 13 49 21 172 11 172 -4 0 -24 -23 -43 -51 -64
-92 -110 -149 -122 -149 -7 0 -5 7 4 18 16 18 42 190 32 215 -4 12 -14 7 -42
-21 -65 -64 -131 -123 -137 -120 -8 5 -33 -36 -82 -130 -52 -100 -69 -123 -89
-115 -10 4 -11 10 -3 25 16 30 4 33 -34 9 -19 -11 -39 -21 -44 -21 -6 0 -16
28 -23 63 -15 70 -31 94 -77 113 -67 29 -170 11 -283 -46 -56 -28 -267 -166
-298 -193 -20 -19 -23 -19 -35 -4 -31 42 -225 161 -338 207 -130 54 -200 53
-270 -6 -25 -21 -46 -31 -53 -26 -6 4 -30 21 -53 36 -23 15 -58 48 -77 74
l-36 45 0 -32 c0 -31 31 -116 72 -196 11 -22 24 -50 29 -62 l8 -21 -47 19
c-57 24 -131 91 -193 174 -56 77 -119 155 -182 227 -39 45 -52 54 -62 45 -9
-8 -10 -16 -3 -24 39 -48 -103 59 -185 139 -33 32 -61 58 -63 58 -19 0 18
-151 47 -191 14 -21 16 -29 7 -29 -7 -1 1 -12 17 -26 l30 -26 -32 18 c-18 10
-32 23 -30 29 1 6 -14 26 -34 43 -44 39 -91 115 -148 242 -95 210 -120 257
-161 300 -43 45 -65 43 -41 -3 6 -12 18 -56 26 -97 8 -41 17 -85 21 -97 4 -13
2 -23 -4 -23 -5 0 -22 30 -37 68 -14 37 -33 80 -41 95 -8 16 -21 68 -30 115
-8 48 -24 125 -34 172 -11 47 -22 99 -25 115 -3 17 -16 47 -28 68 l-22 37 3
-75 c3 -51 1 -75 -7 -75 -6 0 -11 13 -11 28 0 16 -3 32 -7 35 -3 4 -8 17 -9
30 -6 51 -19 87 -66 187 -28 58 -57 120 -65 139 -25 59 -47 3 -59 -149 -9
-122 -11 -124 -50 -45 -32 63 -35 66 -29 31 4 -22 9 -74 11 -115 3 -42 18
-124 34 -183 17 -59 30 -118 30 -130 0 -12 8 -30 18 -41 9 -11 12 -18 5 -16
-13 4 -159 206 -204 281 -33 55 -112 270 -133 360 -26 112 -39 267 -34 414 4
138 4 142 -15 132 -46 -24 -105 -212 -109 -346 -1 -51 -2 -48 -9 28 -23 257
-21 435 6 503 12 29 -13 19 -30 -12 -8 -16 -33 -51 -56 -77 -23 -27 -47 -62
-53 -79 l-11 -30 -5 45 c-3 25 1 117 8 205 19 243 3 442 -44 513 -24 37 -31
25 -22 -40 9 -68 1 -151 -38 -384 -13 -83 -26 -188 -28 -233 -4 -82 -9 -101
-23 -87 -10 10 -10 293 1 426 7 93 6 103 -6 85 -8 -11 -24 -42 -34 -70 l-19
-50 -8 90 c-12 128 -2 338 18 405 10 30 30 82 46 114 16 32 28 60 27 61 -2 2
-19 -8 -39 -20 -57 -37 -128 -193 -173 -380 l-14 -60 -1 84 c-1 102 12 188 47
301 22 74 33 92 78 137 72 72 139 81 181 24 16 -22 27 -7 13 19 -16 29 -69 60
-105 60 -16 0 -53 -12 -82 -27 -29 -14 -56 -23 -60 -20 -10 10 34 130 80 220
43 85 88 129 151 150 59 20 58 37 -1 37 -71 0 -141 -39 -208 -113 -30 -34 -60
-78 -66 -97 -6 -19 -16 -39 -22 -45 -7 -7 -8 -5 -4 7 3 9 9 34 12 55 34 197
166 471 289 601 43 45 35 54 -25 25 -67 -32 -119 -74 -150 -121 -18 -26 -41
-55 -51 -65 -18 -18 -19 -18 -13 10 4 15 12 42 18 58 7 18 11 116 12 250 0
121 4 230 8 243 11 30 2 28 -21 -5z m6335 -385 c-3 -7 -5 -2 -5 12 0 14 2 19
5 13 2 -7 2 -19 0 -25z m-137 -100 c0 -6 -6 -5 -15 2 -8 7 -15 14 -15 16 0 2
7 1 15 -2 8 -4 15 -11 15 -16z m-6233 -100 c-3 -7 -5 -2 -5 12 0 14 2 19 5 13
2 -7 2 -19 0 -25z m6390 -15 c-3 -10 -5 -2 -5 17 0 19 2 27 5 18 2 -10 2 -26
0 -35z m52 -38 l0 -20 -9 20 c-5 11 -9 29 -9 40 l0 20 9 -20 c5 -11 9 -29 9
-40z m-6562 -62 c-3 -10 -5 -4 -5 12 0 17 2 24 5 18 2 -7 2 -21 0 -30z m42 -1
c0 -24 -1 -25 -9 -7 -12 28 -12 47 0 40 6 -3 10 -18 9 -33z m6372 11 c13 -16
12 -17 -3 -4 -10 7 -18 15 -18 17 0 8 8 3 21 -13z m126 -45 c-3 -8 -6 -5 -6 6
-1 11 2 17 5 13 3 -3 4 -12 1 -19z m30 0 c-3 -8 -6 -5 -6 6 -1 11 2 17 5 13 3
-3 4 -12 1 -19z m-6560 -10 c-3 -8 -6 -5 -6 6 -1 11 2 17 5 13 3 -3 4 -12 1
-19z m34 -44 c-7 -31 -9 -34 -10 -12 -1 27 9 62 15 55 3 -2 0 -22 -5 -43z
m6506 -6 c-3 -8 -6 -5 -6 6 -1 11 2 17 5 13 3 -3 4 -12 1 -19z m-88 -120 l11
-33 -20 25 c-11 14 -20 31 -20 38 0 22 17 4 29 -30z m98 -90 c-2 -13 -4 -3 -4
22 0 25 2 35 4 23 2 -13 2 -33 0 -45z m-78 -28 c11 -24 11 -24 -3 -6 -9 11
-16 24 -16 30 0 12 5 7 19 -24z m-6899 5 c17 -9 30 -17 30 -20 0 -9 -41 5 -56
19 -20 20 -11 20 26 1z m6675 -15 c10 -11 16 -20 13 -20 -3 0 -13 9 -23 20
-10 11 -16 20 -13 20 3 0 13 -9 23 -20z m375 -69 c-8 -44 -17 -78 -19 -75 -6
6 21 154 28 154 4 0 0 -36 -9 -79z m37 -3 c-4 -46 -13 -87 -19 -93 -7 -7 -9
-2 -5 15 3 14 9 52 12 85 6 54 11 75 19 75 1 0 -2 -37 -7 -82z m64 49 c-10 -9
-11 -8 -5 6 3 10 9 15 12 12 3 -3 0 -11 -7 -18z m-261 -7 c8 -5 12 -11 10 -14
-3 -2 -14 2 -24 10 -22 15 -10 19 14 4z m11 -77 c13 -16 12 -17 -3 -4 -10 7
-18 15 -18 17 0 8 8 3 21 -13z m366 -19 c-3 -3 -12 -4 -19 -1 -8 3 -5 6 6 6
11 1 17 -2 13 -5z m-37 -8 c0 -2 -9 -6 -20 -9 -11 -3 -18 -1 -14 4 5 9 34 13
34 5z m-250 -108 c0 -5 -4 -8 -8 -8 -8 0 -15 18 -38 90 -3 8 6 -5 20 -30 14
-25 25 -48 26 -52z m230 68 c0 -2 -7 -7 -16 -10 -8 -3 -12 -2 -9 4 6 10 25 14
25 6z m-6853 -38 c-3 -8 -6 -5 -6 6 -1 11 2 17 5 13 3 -3 4 -12 1 -19z m6903
-2 c0 -2 -7 -7 -16 -10 -8 -3 -12 -2 -9 4 6 10 25 14 25 6z m-110 -29 c0 -2
-10 -12 -22 -23 l-23 -19 19 23 c18 21 26 27 26 19z m30 -32 c-14 -8 -29 -14
-35 -14 -5 0 1 6 15 14 14 8 30 14 35 14 6 0 -1 -6 -15 -14z m-100 -15 c-6
-11 -13 -20 -16 -20 -2 0 0 9 6 20 6 11 13 20 16 20 2 0 0 -9 -6 -20z m-6663
-32 c-3 -7 -5 -2 -5 12 0 14 2 19 5 13 2 -7 2 -19 0 -25z m6768 22 c-3 -5 -16
-15 -28 -21 -21 -10 -21 -9 2 10 25 23 36 27 26 11z m-235 -30 c0 -5 -2 -10
-4 -10 -3 0 -8 5 -11 10 -3 6 -1 10 4 10 6 0 11 -4 11 -10z m190 -35 c0 -2
-10 -9 -22 -15 -22 -11 -22 -10 -4 4 21 17 26 19 26 11z m-350 -47 c0 -39 -9
-32 -15 11 -2 18 0 29 6 26 5 -4 9 -20 9 -37z m70 1 c0 -6 -4 -7 -10 -4 -5 3
-10 11 -10 16 0 6 5 7 10 4 6 -3 10 -11 10 -16z m109 -88 c1 -77 -5 -60 -11
29 -3 42 -2 64 2 50 4 -14 8 -49 9 -79z m-6904 31 c-3 -3 -11 0 -18 7 -9 10
-8 11 6 5 10 -3 15 -9 12 -12z m275 -37 c0 -5 -5 -3 -10 5 -5 8 -10 20 -10 25
0 6 5 3 10 -5 5 -8 10 -19 10 -25z m117 3 c-3 -8 -6 -5 -6 6 -1 11 2 17 5 13
3 -3 4 -12 1 -19z m6403 -28 c6 -11 8 -20 6 -20 -3 0 -10 9 -16 20 -6 11 -8
20 -6 20 3 0 10 -9 16 -20z m37 -67 c-3 -10 -5 -2 -5 17 0 19 2 27 5 18 2 -10
2 -26 0 -35z m70 -5 c-3 -8 -6 -5 -6 6 -1 11 2 17 5 13 3 -3 4 -12 1 -19z
m-16 -49 c-9 -22 -10 -22 -10 -3 -1 11 2 24 6 27 12 12 14 0 4 -24z m-41 -34
c0 -5 -5 -3 -10 5 -5 8 -10 20 -10 25 0 6 5 3 10 -5 5 -8 10 -19 10 -25z m65
-22 c-9 -37 -18 -20 -9 19 4 18 9 27 11 20 3 -7 2 -24 -2 -39z m125 -23 c-6
-12 -14 -19 -17 -17 -2 3 1 15 7 27 6 12 14 19 17 17 2 -3 -1 -15 -7 -27z
m-6683 -42 c-2 -13 -4 -3 -4 22 0 25 2 35 4 23 2 -13 2 -33 0 -45z m6481 31
c-3 -8 -7 -3 -11 10 -4 17 -3 21 5 13 5 -5 8 -16 6 -23z m292 28 c0 -2 -19
-21 -42 -42 l-43 -40 40 43 c36 39 45 47 45 39z m-283 -69 c-3 -8 -6 -5 -6 6
-1 11 2 17 5 13 3 -3 4 -12 1 -19z m263 19 c0 -2 -10 -12 -22 -23 l-23 -19 19
23 c18 21 26 27 26 19z m-6685 -104 l5 -48 -15 55 c-17 65 -18 81 -5 58 6 -9
12 -38 15 -65z m6353 46 c-3 -8 -7 -3 -11 10 -4 17 -3 21 5 13 5 -5 8 -16 6
-23z m182 11 c-6 -11 -13 -20 -16 -20 -2 0 0 9 6 20 6 11 13 20 16 20 2 0 0
-9 -6 -20z m80 7 c0 -2 -15 -16 -32 -33 l-33 -29 29 33 c28 30 36 37 36 29z
m258 -14 c-10 -2 -28 -2 -40 0 -13 2 -5 4 17 4 22 1 32 -1 23 -4z m-431 -25
c-3 -8 -6 -5 -6 6 -1 11 2 17 5 13 3 -3 4 -12 1 -19z m-48 -20 c-1 -13 2 -32
7 -43 7 -19 7 -19 -9 -3 -12 12 -16 25 -11 43 8 31 14 33 13 3z m84 -23 c-3
-9 -8 -14 -10 -11 -3 3 -2 9 2 15 9 16 15 13 8 -4z m47 11 c0 -2 -8 -10 -17
-17 -16 -13 -17 -12 -4 4 13 16 21 21 21 13z m305 -16 c-10 -11 -22 -20 -26
-20 -5 0 -1 9 8 20 10 11 22 20 27 20 5 0 1 -9 -9 -20z m-6768 -12 c-3 -8 -6
-5 -6 6 -1 11 2 17 5 13 3 -3 4 -12 1 -19z m5961 -68 c0 -17 -22 32 -32 70 -3
14 3 7 13 -15 11 -22 19 -47 19 -55z m77 60 c3 -6 -1 -7 -9 -4 -18 7 -21 14
-7 14 6 0 13 -4 16 -10z m385 -24 c0 -2 -8 -10 -17 -17 -16 -13 -17 -12 -4 4
13 16 21 21 21 13z m250 -16 c0 -5 -8 -10 -17 -10 -15 0 -16 2 -3 10 19 12 20
12 20 0z m-224 -36 c-10 -14 -20 -23 -23 -20 -3 3 2 12 11 21 9 9 16 21 16 27
0 6 3 8 6 5 4 -4 -1 -18 -10 -33z m-44 -6 c-7 -7 -12 -8 -12 -2 0 14 12 26 19
19 2 -3 -1 -11 -7 -17z m242 -16 c3 -5 0 -9 -7 -9 -7 0 -21 -4 -32 -8 -20 -7
-20 -6 -1 9 22 18 32 20 40 8z m-420 -44 c7 -29 8 -53 1 -46 -11 10 -23 68
-15 68 4 0 10 -10 14 -22z m34 -3 c-3 -3 -9 2 -12 12 -6 14 -5 15 5 6 7 -7 10
-15 7 -18z m266 -10 c-10 -8 -28 -14 -39 -14 -16 1 -13 4 10 14 40 19 53 19
29 0z m-134 -2 c-1 -5 -15 -24 -32 -43 -32 -36 -28 -24 7 23 21 28 25 31 25
20z m-109 -46 c-8 -8 -11 -8 -11 0 0 6 -3 20 -7 30 -7 17 -6 17 11 0 14 -14
16 -21 7 -30z m-66 -19 c27 -57 34 -91 8 -44 -23 43 -44 96 -38 96 3 0 16 -23
30 -52z m335 37 c-7 -8 -20 -15 -29 -15 -11 1 -8 5 9 15 32 18 35 18 20 0z
m-6506 -31 c3 -8 2 -12 -4 -9 -6 3 -10 10 -10 16 0 14 7 11 14 -7z m6259 -21
c-9 -69 -93 -269 -93 -224 0 11 -3 11 -17 0 -16 -13 -17 -12 -4 3 7 10 17 16
21 13 4 -3 13 10 20 28 6 17 18 44 26 59 17 31 18 42 4 33 -18 -11 -10 10 10
28 11 9 20 28 20 41 0 24 9 56 15 56 2 0 1 -17 -2 -37z m92 -13 c-3 -5 -16
-15 -28 -21 -21 -10 -21 -9 2 10 25 23 36 27 26 11z m65 -15 c-14 -8 -29 -14
-35 -14 -5 0 1 6 15 14 14 8 30 14 35 14 6 0 -1 -6 -15 -14z m20 -19 c0 -5
-69 -46 -78 -46 -6 1 69 50 76 50 1 0 2 -2 2 -4z m-6420 -51 c0 -5 -5 -3 -10
5 -5 8 -10 20 -10 25 0 6 5 3 10 -5 5 -8 10 -19 10 -25z m40 -88 c0 -5 -4 -5
-10 -2 -5 3 -10 14 -10 23 0 15 2 15 10 2 5 -8 10 -19 10 -23z m5967 1 c-3 -8
-6 -5 -6 6 -1 11 2 17 5 13 3 -3 4 -12 1 -19z m240 -10 c-3 -7 -5 -2 -5 12 0
14 2 19 5 13 2 -7 2 -19 0 -25z m-449 -108 c0 -22 -1 -22 -8 5 -4 17 -8 41 -8
55 0 22 1 22 8 -5 4 -16 8 -41 8 -55z m-5702 -7 c-6 -6 -36 52 -36 69 1 7 10
-4 21 -25 11 -22 18 -41 15 -44z m6091 55 c-3 -8 -6 -5 -6 6 -1 11 2 17 5 13
3 -3 4 -12 1 -19z m30 -15 c-3 -10 -5 -4 -5 12 0 17 2 24 5 18 2 -7 2 -21 0
-30z m-6084 -38 l6 -50 -14 50 c-17 59 -19 73 -6 60 5 -6 11 -32 14 -60z
m6008 42 c-10 -9 -11 -8 -5 6 3 10 9 15 12 12 3 -3 0 -11 -7 -18z m-204 -49
c-2 -13 -4 -5 -4 17 -1 22 1 32 4 23 2 -10 2 -28 0 -40z m-5978 2 c11 -24 11
-24 -3 -6 -9 11 -16 24 -16 30 0 12 5 7 19 -24z m6311 -3 c0 -2 -12 -14 -27
-28 l-28 -24 24 28 c23 25 31 32 31 24z m-391 -47 c0 -10 -3 -8 -9 5 -12 27
-12 43 0 25 5 -8 9 -22 9 -30z m134 10 c-3 -12 -8 -19 -11 -16 -5 6 5 36 12
36 2 0 2 -9 -1 -20z m161 5 c-4 -8 -9 -15 -13 -15 -3 0 -19 -20 -34 -45 -33
-52 -45 -60 -20 -12 35 63 84 117 67 72z m-138 -72 c-14 -26 -25 -42 -26 -35
0 17 40 95 46 89 3 -3 -6 -27 -20 -54z m234 53 c0 -2 -7 -9 -15 -16 -13 -11
-14 -10 -9 4 5 14 24 23 24 12z m-369 -279 c-11 -40 -24 -83 -30 -97 -10 -23
-11 -22 -5 10 3 19 13 58 22 85 10 31 17 85 17 140 1 133 9 155 12 37 3 -80
-1 -120 -16 -175z m-5742 204 c11 -30 19 -57 17 -59 -4 -3 -46 102 -46 115 0
14 9 -4 29 -56z m5812 10 c-6 -11 -12 -32 -12 -48 -1 -20 -3 -22 -6 -9 -5 21
19 106 25 88 2 -6 -1 -20 -7 -31z m196 14 c-7 -13 -18 -27 -25 -30 -14 -5 -8
9 16 38 20 23 22 22 9 -8z m245 3 c-7 -7 -12 -8 -12 -2 0 14 12 26 19 19 2 -3
-1 -11 -7 -17z m-5935 -20 c-3 -7 -5 -2 -5 12 0 14 2 19 5 13 2 -7 2 -19 0
-25z m5381 7 c-3 -3 -9 2 -12 12 -6 14 -5 15 5 6 7 -7 10 -15 7 -18z m206 0
c-9 -14 -18 -25 -21 -25 -5 0 5 18 20 38 17 22 18 13 1 -13z m158 -2 c-6 -10
-48 -54 -93 -98 -94 -90 -79 -68 24 37 37 38 67 74 67 80 0 6 3 9 6 6 3 -4 1
-15 -4 -25z m-124 -92 c-72 -78 -72 -78 -63 -61 18 34 91 117 102 117 7 0 -10
-25 -39 -56z m-5611 -23 c-2 -13 -4 -5 -4 17 -1 22 1 32 4 23 2 -10 2 -28 0
-40z m-260 20 c-3 -8 -6 -5 -6 6 -1 11 2 17 5 13 3 -3 4 -12 1 -19z m220 -30
c-3 -7 -5 -2 -5 12 0 14 2 19 5 13 2 -7 2 -19 0 -25z m5693 -9 c-68 -59 -94
-70 -36 -15 33 31 62 54 65 51 3 -3 -10 -19 -29 -36z m84 26 c-10 -8 -23 -15
-28 -15 -6 0 -1 7 10 15 10 8 23 15 28 15 6 0 1 -7 -10 -15z m-6014 -30 c0 -5
-5 -3 -10 5 -5 8 -10 20 -10 25 0 6 5 3 10 -5 5 -8 10 -19 10 -25z m27 3 c-3
-8 -6 -5 -6 6 -1 11 2 17 5 13 3 -3 4 -12 1 -19z m5783 3 c-5 -11 -15 -23 -21
-27 -6 -3 -3 5 6 20 20 30 30 35 15 7z m-211 -46 c0 -5 -6 1 -14 15 -8 14 -14
30 -14 35 0 6 6 -1 14 -15 8 -14 14 -29 14 -35z m52 -35 c-10 -24 -10 -24 -7
5 8 58 9 60 13 40 2 -12 -1 -32 -6 -45z m284 40 c-10 -11 -23 -20 -29 -20 -6
1 0 10 13 20 30 26 39 26 16 0z m-195 -47 c-10 -16 -11 -15 -6 7 3 14 6 32 7
40 1 8 4 5 6 -7 2 -12 -1 -30 -7 -40z m-5553 0 c-3 -10 -5 -4 -5 12 0 17 2 24
5 18 2 -7 2 -21 0 -30z m-132 -43 c19 -38 47 -84 63 -102 31 -36 77 -108 69
-108 -3 0 -15 15 -26 33 -11 17 -31 44 -44 58 -23 24 -107 168 -107 182 0 19
13 1 45 -63z m5819 49 c-21 -23 -73 -53 -80 -46 -3 2 9 10 25 17 16 6 37 20
47 31 9 10 19 19 22 19 3 0 -3 -9 -14 -21z m-73 -12 c-10 -9 -11 -8 -5 6 3 10
9 15 12 12 3 -3 0 -11 -7 -18z m189 19 c0 -2 -13 -6 -29 -8 -17 -2 -28 -1 -25
4 5 8 54 12 54 4z m-230 -51 c-6 -15 -13 -25 -16 -23 -2 3 1 17 7 32 7 14 14
24 16 22 2 -2 -1 -16 -7 -31z m-5739 -37 l33 -43 -37 34 c-33 31 -46 51 -33
51 2 0 19 -19 37 -42z m269 7 c0 -5 -5 -3 -10 5 -5 8 -10 20 -10 25 0 6 5 3
10 -5 5 -8 10 -19 10 -25z m5415 -5 c-4 -17 -9 -30 -11 -27 -2 2 -1 18 2 36 4
17 9 30 11 27 3 -2 2 -19 -2 -36z m-5407 -133 c23 -49 42 -94 42 -101 0 -6 14
-34 30 -60 17 -27 29 -53 27 -60 -5 -13 -92 157 -131 256 -14 36 -25 81 -25
100 1 32 2 32 8 -7 4 -22 26 -80 49 -128z m-313 71 c33 -34 47 -51 31 -39 -28
20 -102 101 -94 101 2 0 30 -28 63 -62z m6015 48 c0 -2 -7 -7 -16 -10 -8 -3
-12 -2 -9 4 6 10 25 14 25 6z m-451 -53 c-1 -21 -4 -49 -8 -63 -5 -17 -7 -4
-7 37 1 35 4 63 9 63 4 0 7 -17 6 -37z m-152 5 c-3 -8 -6 -5 -6 6 -1 11 2 17
5 13 3 -3 4 -12 1 -19z m31 -29 c-3 -8 -7 -3 -11 10 -4 17 -3 21 5 13 5 -5 8
-16 6 -23z m721 21 c-6 -5 -18 -6 -26 -3 -19 8 -16 11 13 11 17 0 22 -3 13 -8z
m-862 -47 c-3 -10 -5 -2 -5 17 0 19 2 27 5 18 2 -10 2 -26 0 -35z m228 -13
c-4 -28 -9 -49 -12 -47 -2 3 -1 28 3 56 4 28 9 50 11 47 3 -3 2 -28 -2 -56z
m148 46 c-13 -21 -57 -71 -71 -80 -7 -4 -4 8 7 26 10 18 24 32 30 31 6 -2 15
6 21 17 6 11 13 20 16 20 3 0 1 -6 -3 -14z m324 8 c-3 -3 -12 -4 -19 -1 -8 3
-5 6 6 6 11 1 17 -2 13 -5z m-6066 -21 c13 -16 12 -17 -3 -4 -17 13 -22 21
-14 21 2 0 10 -8 17 -17z m6022 10 c-7 -2 -19 -2 -25 0 -7 3 -2 5 12 5 14 0
19 -2 13 -5z m-5809 -76 c33 -44 14 -36 -29 12 -29 33 -33 41 -15 30 13 -9 33
-28 44 -42z m132 -4 c10 -27 30 -66 44 -88 43 -65 94 -163 70 -135 -11 14 -34
50 -51 80 -17 30 -43 78 -59 105 -26 44 -38 85 -26 85 2 0 12 -21 22 -47z
m-183 -33 c26 -19 46 -39 47 -43 0 -10 -114 78 -132 102 -13 16 -10 14 85 -59z
m5079 45 c3 -13 1 -22 -3 -19 -9 5 -13 44 -5 44 2 0 6 -11 8 -25z m-65 -7 c-3
-8 -6 -5 -6 6 -1 11 2 17 5 13 3 -3 4 -12 1 -19z m-4872 -14 c9 -15 12 -23 6
-20 -11 7 -35 46 -28 46 3 0 12 -12 22 -26z m5415 9 c-14 -9 -35 -25 -47 -36
-13 -11 -23 -16 -23 -11 1 10 70 63 85 64 5 0 -2 -7 -15 -17z m-5271 -25 c10
-30 9 -31 -4 -14 -8 11 -15 26 -15 33 0 22 8 14 19 -19z m5182 14 c-5 -10 -18
-25 -27 -33 -11 -9 -9 -2 6 19 26 35 36 42 21 14z m286 2 c-3 -3 -12 -4 -19
-1 -8 3 -5 6 6 6 11 1 17 -2 13 -5z m-182 -14 c-3 -5 -12 -10 -18 -10 -7 0 -6
4 3 10 19 12 23 12 15 0z m-585 -75 c-6 -49 -8 -53 -9 -20 -1 37 8 89 14 83 2
-2 0 -30 -5 -63z m170 45 c-6 -11 -13 -20 -16 -20 -2 0 0 9 6 20 6 11 13 20
16 20 2 0 0 -9 -6 -20z m61 -37 c-6 -21 -11 -53 -11 -70 0 -18 -5 -33 -11 -33
-6 0 -8 8 -5 18 2 9 7 37 11 62 9 59 17 88 22 73 2 -6 0 -29 -6 -50z m439 27
c-8 -5 -19 -10 -25 -10 -5 0 -3 5 5 10 8 5 20 10 25 10 6 0 3 -5 -5 -10z
m-5341 -45 c0 -5 -4 -3 -9 5 -5 8 -9 22 -9 30 0 16 17 -16 18 -35z m350 -10
l0 -20 -9 20 c-5 11 -9 29 -9 40 l0 20 9 -20 c5 -11 9 -29 9 -40z m4868 1
c-49 -24 -94 -49 -100 -55 -6 -6 -16 -11 -21 -11 -6 0 -2 8 9 16 26 20 176 94
190 94 5 0 -30 -20 -78 -44z m-5492 4 c12 -19 -12 -10 -31 11 -19 22 -19 22 3
10 12 -6 25 -16 28 -21z m5374 -10 c-31 -38 -39 -46 -39 -35 0 6 61 75 67 75
2 0 -11 -18 -28 -40z m-72 8 c-3 -8 -6 -5 -6 6 -1 11 2 17 5 13 3 -3 4 -12 1
-19z m-240 -35 c-3 -10 -5 -4 -5 12 0 17 2 24 5 18 2 -7 2 -21 0 -30z m-33
-141 c-7 -10 -19 90 -15 128 5 39 6 33 12 -40 3 -47 5 -86 3 -88z m166 131
c-11 -17 -11 -17 -6 0 3 10 6 24 7 30 0 9 2 9 5 0 3 -7 0 -20 -6 -30z m-5125
1 l30 -26 -35 23 c-45 29 -45 29 -34 29 5 0 23 -12 39 -26z m133 -29 c17 -30
27 -55 23 -55 -8 0 -61 91 -61 104 0 16 11 2 38 -49z m329 8 c-3 -10 -5 -4 -5
12 0 17 2 24 5 18 2 -7 2 -21 0 -30z m4973 30 c-8 -3 -24 -10 -35 -16 -18 -9
-19 -9 -6 6 7 10 23 17 35 16 14 0 16 -2 6 -6z m-238 -44 c5 -3 3 -9 -4 -11
-9 -4 -14 3 -15 21 -1 14 1 19 4 11 3 -8 10 -18 15 -21z m-5292 11 c8 -5 11
-10 5 -10 -5 0 -17 5 -25 10 -8 5 -10 10 -5 10 6 0 17 -5 25 -10z m5537 -6
c-3 -3 -12 -4 -19 -1 -8 3 -5 6 6 6 11 1 17 -2 13 -5z m-5437 -30 c0 -2 -9 0
-20 6 -11 6 -20 13 -20 16 0 2 9 0 20 -6 11 -6 20 -13 20 -16z m5239 14 c-2
-2 -22 -19 -44 -38 l-40 -35 30 35 c34 40 48 51 54 44 2 -2 2 -5 0 -6z m35 -9
c-10 -11 -28 -25 -39 -31 -12 -5 -7 3 13 21 37 35 55 42 26 10z m-5153 -34 c8
-16 6 -15 -10 4 -12 13 -21 28 -21 35 0 12 14 -5 31 -39z m4886 23 c-3 -8 -6
-5 -6 6 -1 11 2 17 5 13 3 -3 4 -12 1 -19z m49 -94 c-25 -47 -46 -90 -46 -94
0 -5 -5 -21 -12 -37 -6 -15 -12 -34 -12 -42 -1 -7 -21 -29 -46 -48 l-45 -35
38 34 c21 19 39 41 40 48 2 8 5 20 9 25 3 6 11 29 17 52 6 23 27 70 46 103 19
34 35 67 35 74 0 17 14 30 18 17 2 -6 -17 -50 -42 -97z m-8 71 c-6 -14 -13
-23 -15 -21 -5 5 15 46 22 46 3 0 -1 -11 -7 -25z m436 0 c-10 -8 -23 -14 -29
-14 -5 0 -1 6 9 14 11 8 24 15 30 15 5 0 1 -7 -10 -15z m-4977 -17 c-3 -8 -6
-5 -6 6 -1 11 2 17 5 13 3 -3 4 -12 1 -19z m-406 -25 c10 -12 5 -11 -18 6 -18
12 -33 24 -33 27 0 9 37 -15 51 -33z m179 12 c13 -14 21 -25 18 -25 -2 0 -15
11 -28 25 -13 14 -21 25 -18 25 2 0 15 -11 28 -25z m4617 -7 c-3 -7 -5 -2 -5
12 0 14 2 19 5 13 2 -7 2 -19 0 -25z m420 26 c-3 -3 -12 -4 -19 -1 -8 3 -5 6
6 6 11 1 17 -2 13 -5z m-5062 -64 c27 -27 45 -50 39 -50 -5 0 -32 23 -59 50
-27 28 -45 50 -39 50 5 0 32 -22 59 -50z m362 28 c-3 -8 -6 -5 -6 6 -1 11 2
17 5 13 3 -3 4 -12 1 -19z m4390 -25 c-3 -10 -5 -4 -5 12 0 17 2 24 5 18 2 -7
2 -21 0 -30z m183 34 c0 -2 -10 -12 -22 -23 l-23 -19 19 23 c18 21 26 27 26
19z m180 -2 c0 -7 -81 -27 -87 -21 -3 3 10 9 28 15 39 11 59 13 59 6z m-5345
-15 c3 -6 -1 -7 -9 -4 -18 7 -21 14 -7 14 6 0 13 -4 16 -10z m4852 -32 c-3 -7
-5 -2 -5 12 0 14 2 19 5 13 2 -7 2 -19 0 -25z m234 -1 l-23 -22 17 28 c10 15
20 25 23 22 3 -3 -5 -16 -17 -28z m302 26 c-7 -2 -19 -2 -25 0 -7 3 -2 5 12 5
14 0 19 -2 13 -5z m-5695 -10 c-26 -2 -71 -2 -100 0 -29 2 -8 3 47 3 55 0 79
-1 53 -3z m586 -4 c-2 -4 -1 -9 3 -11 5 -2 19 -16 33 -32 l25 -29 -26 18 c-37
27 -61 62 -44 62 8 0 12 -4 9 -8z m185 -79 c0 -16 -48 68 -48 85 -1 6 10 -8
24 -30 13 -22 24 -47 24 -55z m4328 28 c-2 -13 -4 -5 -4 17 -1 22 1 32 4 23 2
-10 2 -28 0 -40z m-4477 -66 c59 -58 57 -56 -32 19 -54 45 -98 84 -98 86 0 10
70 -47 130 -105z m4657 76 c-3 -8 -6 -5 -6 6 -1 11 2 17 5 13 3 -3 4 -12 1
-19z m390 16 c-3 -3 -12 -4 -19 -1 -8 3 -5 6 6 6 11 1 17 -2 13 -5z m-5382
-36 c5 -5 -6 -3 -25 3 -19 6 -39 16 -45 21 -5 5 6 3 25 -3 19 -6 39 -16 45
-21z m141 1 c4 -8 1 -8 -14 0 -12 6 -24 16 -28 22 -4 8 -1 8 14 0 12 -6 24
-16 28 -22z m451 -21 c-3 -7 -5 -2 -5 12 0 14 2 19 5 13 2 -7 2 -19 0 -25z
m4040 -15 c-3 -10 -5 -2 -5 17 0 19 2 27 5 18 2 -10 2 -26 0 -35z m274 0 c-9
-16 -10 -16 -11 -1 0 9 3 25 7 35 7 16 8 17 11 1 2 -10 -1 -25 -7 -35z m506
41 c-3 -3 -12 -4 -19 -1 -8 3 -5 6 6 6 11 1 17 -2 13 -5z m73 -3 c0 -6 -4 -12
-8 -15 -5 -3 -9 1 -9 9 0 8 4 15 9 15 4 0 8 -4 8 -9z m-513 -38 c-3 -10 -5 -4
-5 12 0 17 2 24 5 18 2 -7 2 -21 0 -30z m-5060 21 c-3 -3 -12 -4 -19 -1 -8 3
-5 6 6 6 11 1 17 -2 13 -5z m312 -30 c2 -2 -2 -4 -10 -4 -8 0 -25 10 -39 21
l-25 20 35 -17 c19 -9 37 -18 39 -20z m100 -46 l34 -43 -44 45 c-24 25 -55 53
-69 63 -19 14 -16 13 10 -2 19 -11 50 -39 69 -63z m-224 62 c3 -6 -1 -7 -9 -4
-18 7 -21 14 -7 14 6 0 13 -4 16 -10z m5415 6 c0 -2 -7 -7 -16 -10 -8 -3 -12
-2 -9 4 6 10 25 14 25 6z m-390 -16 c0 -5 -5 -10 -11 -10 -5 0 -7 5 -4 10 3 6
8 10 11 10 2 0 4 -4 4 -10z m-4429 -77 c10 -24 16 -43 13 -43 -8 0 -44 83 -43
100 1 13 1 13 6 0 3 -8 14 -34 24 -57z m4166 45 c-3 -8 -6 -5 -6 6 -1 11 2 17
5 13 3 -3 4 -12 1 -19z m623 18 c0 -2 -7 -7 -16 -10 -8 -3 -12 -2 -9 4 6 10
25 14 25 6z m-290 -22 c-30 -7 -56 -11 -58 -9 -6 6 60 23 88 23 14 0 0 -6 -30
-14z m247 0 c-3 -3 -12 -4 -19 -1 -8 3 -5 6 6 6 11 1 17 -2 13 -5z m-852 -44
c-4 -17 -9 -29 -12 -26 -3 2 -2 19 2 36 4 17 9 29 12 26 3 -2 2 -19 -2 -36z
m807 32 c-12 -8 -72 -4 -72 4 0 2 19 4 43 4 25 0 37 -4 29 -8z m-4718 -156
c27 -40 28 -66 1 -30 -24 33 -85 156 -85 173 1 9 13 -11 29 -44 15 -33 40 -78
55 -99z m4364 125 c-13 -17 -27 -30 -32 -30 -6 -1 3 13 19 29 37 38 43 39 13
1z m72 19 c-35 -24 -54 -31 -30 -11 14 11 30 21 35 21 6 0 3 -5 -5 -10z m-267
-45 c-13 -25 -29 -48 -35 -51 -12 -8 19 51 41 79 23 28 21 20 -6 -28z m47 15
c-6 -11 -13 -20 -16 -20 -2 0 0 9 6 20 6 11 13 20 16 20 2 0 0 -9 -6 -20z
m-4440 -35 c0 -3 -11 2 -24 12 -13 10 -22 21 -20 25 5 7 44 -27 44 -37z m37 3
c-3 -7 -5 -2 -5 12 0 14 2 19 5 13 2 -7 2 -19 0 -25z m4613 28 c0 -2 -7 -7
-16 -10 -8 -3 -12 -2 -9 4 6 10 25 14 25 6z m63 -30 c-10 -13 -20 -22 -22 -20
-4 4 29 44 36 44 2 0 -4 -11 -14 -24z m-5185 7 c-10 -2 -28 -2 -40 0 -13 2 -5
4 17 4 22 1 32 -1 23 -4z m-70 -8 c-8 -8 -77 -9 -85 -2 -3 4 15 7 42 7 27 0
46 -2 43 -5z m-101 -11 c-3 -3 -12 -4 -19 -1 -8 3 -5 6 6 6 11 1 17 -2 13 -5z
m708 -36 l16 -33 -20 25 c-20 24 -26 40 -16 40 2 0 12 -15 20 -32z m125 -56
c0 -3 -11 9 -25 28 -14 19 -25 41 -25 49 0 9 11 -4 25 -28 14 -23 25 -46 25
-49z m-262 30 c25 -21 23 -21 -23 4 -63 34 -78 47 -37 32 18 -7 45 -23 60 -36z
m82 11 c23 -20 50 -50 62 -67 13 -19 -6 -6 -48 34 -38 36 -70 66 -73 68 -2 1
1 2 7 2 7 0 30 -16 52 -37z m4420 27 c0 -5 -5 -10 -11 -10 -5 0 -7 5 -4 10 3
6 8 10 11 10 2 0 4 -4 4 -10z m-223 -47 c-3 -10 -5 -2 -5 17 0 19 2 27 5 18 2
-10 2 -26 0 -35z m363 43 c0 -2 -9 -6 -20 -9 -11 -3 -18 -1 -14 4 5 9 34 13
34 5z m-4240 -41 c0 -5 -5 -3 -10 5 -5 8 -10 20 -10 25 0 6 5 3 10 -5 5 -8 10
-19 10 -25z m3794 -47 c-3 -46 -11 -90 -16 -98 -6 -10 -7 -6 -4 15 3 17 8 60
11 98 4 37 9 67 11 67 3 0 2 -37 -2 -82z m-3854 37 c0 -5 -5 -3 -10 5 -5 8
-10 20 -10 25 0 6 5 3 10 -5 5 -8 10 -19 10 -25z m3897 3 c-3 -7 -5 -2 -5 12
0 14 2 19 5 13 2 -7 2 -19 0 -25z m643 22 c0 -5 -4 -10 -10 -10 -5 0 -10 5
-10 10 0 6 5 10 10 10 6 0 10 -4 10 -10z m50 0 c18 -12 2 -12 -25 0 -13 6 -15
9 -5 9 8 0 22 -4 30 -9z m-30 -32 c19 -6 30 -13 23 -15 -6 -2 -31 5 -55 16
-24 12 -34 18 -23 15 11 -3 36 -11 55 -16z m-5060 -18 c8 -5 11 -10 5 -10 -5
0 -17 5 -25 10 -8 5 -10 10 -5 10 6 0 17 -5 25 -10z m5015 0 c3 -6 -1 -7 -9
-4 -18 7 -21 14 -7 14 6 0 13 -4 16 -10z m-4920 -28 c-3 -3 -11 0 -18 7 -9 10
-8 11 6 5 10 -3 15 -9 12 -12z m117 -13 c56 -36 65 -51 11 -18 -59 35 -78 49
-69 49 5 0 31 -14 58 -31z m199 14 c13 -16 12 -17 -3 -4 -10 7 -18 15 -18 17
0 8 8 3 21 -13z m64 -45 c29 -63 49 -91 115 -170 l35 -42 -33 20 c-18 10 -47
34 -65 53 l-32 34 30 -19 30 -19 -26 32 c-32 38 -103 173 -91 173 5 0 21 -28
37 -62z m4055 9 c-19 -18 -27 -23 -20 -12 27 38 43 55 49 50 3 -3 -10 -20 -29
-38z m492 23 c18 -11 29 -20 23 -20 -5 0 -23 9 -40 20 -39 26 -25 26 17 0z
m-645 -12 c-3 -8 -6 -5 -6 6 -1 11 2 17 5 13 3 -3 4 -12 1 -19z m740 16 c-3
-3 -12 -4 -19 -1 -8 3 -5 6 6 6 11 1 17 -2 13 -5z m-4547 -39 c0 -5 -5 -3 -10
5 -5 8 -10 20 -10 25 0 6 5 3 10 -5 5 -8 10 -19 10 -25z m4283 18 c-7 -2 -19
-2 -25 0 -7 3 -2 5 12 5 14 0 19 -2 13 -5z m-93 -7 c0 -3 -4 -8 -10 -11 -5 -3
-10 -1 -10 4 0 6 5 11 10 11 6 0 10 -2 10 -4z m-210 -47 c-14 -11 -44 -38 -67
-61 -24 -23 -43 -39 -43 -34 0 4 -12 -1 -27 -12 -43 -29 -61 -36 -33 -12 92
78 119 98 148 115 17 11 32 24 32 29 0 5 3 6 8 2 4 -4 -4 -16 -18 -27z m-4630
14 c-14 -2 -43 -9 -65 -15 -38 -10 -39 -12 -15 -18 19 -6 14 -7 -20 -7 -25 1
-54 -3 -65 -8 -11 -4 -17 -5 -13 -1 14 17 135 55 168 54 26 -1 29 -2 10 -5z
m127 1 c-3 -3 -12 -4 -19 -1 -8 3 -5 6 6 6 11 1 17 -2 13 -5z m524 -45 c11
-22 19 -45 17 -50 -2 -6 -16 15 -31 46 -15 31 -23 54 -17 50 6 -3 19 -24 31
-46z m3699 44 c-1 -5 -8 -19 -16 -33 -8 -14 -13 -17 -10 -7 3 10 6 25 6 33 0
8 5 14 10 14 6 0 10 -3 10 -7z m180 -48 c-24 -24 -46 -42 -49 -39 -5 4 78 83
89 84 2 0 -16 -20 -40 -45z m-4323 29 c-3 -3 -12 -4 -19 -1 -8 3 -5 6 6 6 11
1 17 -2 13 -5z m4596 -1 c-7 -2 -21 -2 -30 0 -10 3 -4 5 12 5 17 0 24 -2 18
-5z m-4523 -23 c22 -11 40 -23 40 -25 0 -5 -79 32 -89 41 -11 10 14 2 49 -16z
m4170 12 c0 -5 -7 -17 -15 -28 -14 -18 -14 -17 -4 9 12 27 19 34 19 19z m230
1 c-8 -3 -28 -12 -45 -20 l-30 -14 25 20 c14 11 34 20 45 20 14 0 16 -2 5 -6z
m-4180 -45 c0 -10 -56 18 -65 32 -4 6 10 3 29 -7 20 -9 36 -20 36 -25z m4350
29 c-9 -8 -121 -17 -117 -10 3 5 31 9 63 11 32 2 57 1 54 -1z m-4111 -62 c0
-5 -6 -1 -14 9 -8 11 -15 24 -15 30 0 5 7 1 15 -10 8 -10 14 -23 14 -29z
m3954 28 c-7 -2 -19 -2 -25 0 -7 3 -2 5 12 5 14 0 19 -2 13 -5z m152 -3 c3 -5
2 -10 -4 -10 -5 0 -13 5 -16 10 -3 6 -2 10 4 10 5 0 13 -4 16 -10z m-199 -9
c-6 -9 -46 -22 -46 -15 0 3 10 9 23 14 29 11 29 11 23 1z m239 -9 c-3 -3 -11
0 -18 7 -9 10 -8 11 6 5 10 -3 15 -9 12 -12z m-4671 -1 c4 -5 -3 -7 -14 -4
-23 6 -26 13 -6 13 8 0 17 -4 20 -9z m4340 -21 c-25 -26 -154 -97 -154 -85 0
2 31 20 69 40 38 20 77 45 87 56 9 10 20 19 23 19 3 0 -8 -14 -25 -30z m431
20 c-3 -5 -12 -10 -18 -10 -7 0 -6 4 3 10 19 12 23 12 15 0z m-300 -10 c-16
-4 -39 -11 -50 -14 -13 -5 -12 -2 5 8 14 8 36 15 50 15 23 -1 22 -2 -5 -9z
m-4400 -10 c3 -6 -1 -7 -9 -4 -18 7 -21 14 -7 14 6 0 13 -4 16 -10z m3995 6
c0 -3 -4 -8 -10 -11 -5 -3 -10 -1 -10 4 0 6 5 11 10 11 6 0 10 -2 10 -4z
m-3491 -59 c-2 -3 -15 10 -28 27 l-24 31 28 -27 c16 -15 27 -29 24 -31z m4131
49 c0 -2 -7 -7 -16 -10 -8 -3 -12 -2 -9 4 6 10 25 14 25 6z m-4271 -52 c34
-20 61 -38 61 -40 0 -7 -75 29 -109 52 -55 37 -20 28 48 -12z m3672 18 c-5
-10 -18 -25 -27 -33 -16 -12 -17 -12 -9 1 10 18 37 50 42 50 2 0 -1 -8 -6 -18z
m-240 -15 c-10 -9 -11 -8 -5 6 3 10 9 15 12 12 3 -3 0 -11 -7 -18z m76 -24
c-3 -10 -5 -4 -5 12 0 17 2 24 5 18 2 -7 2 -21 0 -30z m398 27 c-3 -5 -12 -10
-18 -10 -7 0 -6 4 3 10 19 12 23 12 15 0z m82 4 c-3 -3 -12 -4 -19 -1 -8 3 -5
6 6 6 11 1 17 -2 13 -5z m-387 -12 c0 -5 -7 -17 -15 -28 -14 -18 -14 -17 -4 9
12 27 19 34 19 19z m150 5 c0 -2 -10 -12 -22 -23 l-23 -19 19 23 c18 21 26 27
26 19z m-3535 -56 c26 -29 33 -40 18 -32 -24 12 -63 58 -63 74 0 6 1 8 3 6 1
-2 20 -24 42 -48z m19 23 c3 -8 2 -12 -4 -9 -6 3 -10 10 -10 16 0 14 7 11 14
-7z m-94 -4 c0 -5 -2 -10 -4 -10 -3 0 -8 5 -11 10 -3 6 -1 10 4 10 6 0 11 -4
11 -10z m3255 -54 c-20 -48 -57 -108 -62 -102 -3 3 3 17 14 33 10 15 26 45 36
66 21 46 31 49 12 3z m38 14 c-3 -12 -8 -19 -11 -16 -5 6 5 36 12 36 2 0 2 -9
-1 -20z m452 11 c-12 -10 -65 -24 -65 -16 0 2 15 9 33 14 43 12 42 12 32 2z
m-95 -9 c0 -4 -17 -14 -37 -21 -65 -23 -70 -22 -18 4 57 28 55 28 55 17z
m-100 -6 c0 -2 -8 -10 -17 -17 -16 -13 -17 -12 -4 4 13 16 21 21 21 13z
m-3384 -38 l19 -21 -27 18 c-29 18 -34 25 -20 25 5 0 17 -10 28 -22z m3629 6
c-22 -8 -52 -19 -66 -23 -14 -5 -37 -14 -50 -20 -23 -12 -23 -11 -4 4 11 8 35
20 55 25 19 6 42 14 50 20 8 5 24 10 35 9 12 0 3 -6 -20 -15z m115 1 c7 -8 19
-15 28 -15 8 0 12 -3 9 -6 -3 -4 -21 0 -39 9 -18 8 -42 17 -53 20 -13 3 -10 5
11 6 17 0 37 -6 44 -14z m-644 -27 c-9 -12 -16 -19 -16 -15 0 11 24 47 28 42
2 -2 -3 -14 -12 -27z m76 0 c-8 -8 -9 -4 -5 13 4 13 8 18 11 10 2 -7 -1 -18
-6 -23z m288 27 c0 -7 -81 -47 -86 -42 -3 2 15 14 38 25 49 24 48 24 48 17z
m-3442 -98 c26 -22 58 -53 72 -70 14 -17 52 -58 85 -90 l60 -60 -53 43 c-28
23 -60 52 -70 64 -19 24 -117 115 -172 159 l-35 28 33 -18 c18 -10 54 -35 80
-56z m162 4 c0 -10 -49 53 -50 63 0 6 11 -5 25 -24 14 -19 25 -36 25 -39z
m2946 27 c-8 -19 -22 -40 -30 -47 -8 -7 -2 10 12 38 30 56 39 61 18 9z m144
38 c0 -2 -8 -10 -17 -17 -16 -13 -17 -12 -4 4 13 16 21 21 21 13z m70 0 c0 -2
-7 -7 -16 -10 -8 -3 -12 -2 -9 4 6 10 25 14 25 6z m-3410 -61 c0 -11 -14 7
-31 40 -7 13 -3 12 10 -5 11 -14 21 -29 21 -35z m3978 44 c-18 -10 -106 -39
-121 -39 -5 0 -6 4 -3 9 3 4 25 12 48 16 l43 8 -35 7 c-30 6 -26 8 25 8 45 1
56 -1 43 -9z m-4058 -25 c0 -2 -9 0 -20 6 -11 6 -20 13 -20 16 0 2 9 0 20 -6
11 -6 20 -13 20 -16z m-182 -41 c8 -7 37 -25 64 -39 28 -14 48 -28 45 -31 -3
-3 -43 18 -89 45 -103 63 -139 91 -79 61 25 -12 51 -28 59 -36z m3295 42 c-3
-9 -8 -14 -10 -11 -3 3 -2 9 2 15 9 16 15 13 8 -4z m114 -7 c-3 -8 -6 -5 -6 6
-1 11 2 17 5 13 3 -3 4 -12 1 -19z m87 -3 c-9 -14 -19 -23 -22 -20 -5 4 26 45
35 45 2 0 -4 -11 -13 -25z m499 18 c-7 -2 -19 -2 -25 0 -7 3 -2 5 12 5 14 0
19 -2 13 -5z m-3739 -73 l21 -25 -25 20 c-36 29 -59 59 -53 68 3 5 12 -2 21
-15 8 -13 25 -34 36 -48z m195 -13 c2 -13 -33 14 -59 47 l-25 31 42 -35 c23
-19 42 -38 42 -43z m3166 63 c-3 -5 -11 -10 -16 -10 -6 0 -7 5 -4 10 3 6 11
10 16 10 6 0 7 -4 4 -10z m-3785 -10 c8 -5 11 -10 5 -10 -5 0 -17 5 -25 10 -8
5 -10 10 -5 10 6 0 17 -5 25 -10z m4228 3 c-10 -2 -26 -2 -35 0 -10 3 -2 5 17
5 19 0 27 -2 18 -5z m-3722 -48 c27 -24 46 -45 43 -45 -3 0 -28 20 -55 45 -27
24 -46 45 -43 45 3 0 28 -20 55 -45z m3647 38 c-7 -2 -19 -2 -25 0 -7 3 -2 5
12 5 14 0 19 -2 13 -5z m-3850 -19 c30 -16 94 -64 84 -64 -3 0 -36 18 -73 40
-67 39 -75 56 -11 24z m523 -6 l19 -23 -25 20 c-14 11 -27 21 -29 22 -2 2 0 3
6 3 5 0 18 -10 29 -22z m2596 -28 c-10 -27 -20 -50 -24 -50 -4 0 -3 11 2 25 6
14 14 36 20 50 17 45 19 26 2 -25z m368 35 c0 -7 -72 -36 -78 -30 -3 2 6 8 19
13 13 5 31 12 39 15 8 3 16 6 18 6 1 1 2 -1 2 -4z m277 -1 c-3 -3 -12 -4 -19
-1 -8 3 -5 6 6 6 11 1 17 -2 13 -5z m-3232 -103 c-3 -3 -29 19 -58 48 l-52 54
57 -48 c32 -27 55 -51 53 -54z m2990 89 c-3 -5 -14 -10 -23 -10 -15 0 -15 2
-2 10 20 13 33 13 25 0z m59 -5 c-18 -14 -18 -14 9 -15 15 0 27 -5 27 -11 0
-8 -14 -10 -43 -6 -27 4 -48 2 -55 -5 -7 -7 -14 -9 -17 -6 -3 3 13 17 37 31
47 28 74 36 42 12z m-185 -18 c-33 -28 -85 -54 -97 -50 -11 5 -13 3 -7 -7 5
-9 4 -11 -4 -6 -6 4 -26 -2 -44 -14 l-32 -22 30 27 c30 26 146 86 154 79 2 -2
2 -6 0 -7z m430 4 c8 -5 -11 -8 -50 -8 -35 1 -80 -2 -99 -6 l-35 -7 35 14 c39
16 128 20 149 7z m-3418 -58 c8 -10 -5 -3 -28 16 -24 18 -43 35 -43 38 0 7 55
-34 71 -54z m-526 37 c3 -6 -1 -7 -9 -4 -18 7 -21 14 -7 14 6 0 13 -4 16 -10z
m280 -8 c-3 -3 -11 0 -18 7 -9 10 -8 11 6 5 10 -3 15 -9 12 -12z m3085 15 c0
-2 -12 -14 -27 -28 l-28 -24 24 28 c23 25 31 32 31 24z m-3310 -43 c0 -2 -9 0
-20 6 -11 6 -20 13 -20 16 0 2 9 0 20 -6 11 -6 20 -13 20 -16z m196 -2 c-4 -3
-14 2 -24 12 -16 18 -16 18 6 6 13 -6 21 -14 18 -18z m2711 -4 c-3 -7 -5 -2
-5 12 0 14 2 19 5 13 2 -7 2 -19 0 -25z m896 25 c3 -5 -15 -9 -39 -10 -24 -1
-44 2 -44 7 0 12 77 14 83 3z m-3353 -38 c19 -19 32 -35 29 -35 -3 0 -20 16
-39 35 -19 19 -32 35 -29 35 3 0 20 -16 39 -35z m3146 10 c-20 -15 -36 -19
-36 -10 0 5 38 23 50 24 3 0 -4 -6 -14 -14z m-3341 -7 c14 -6 25 -15 25 -20 0
-7 -31 8 -59 29 -10 7 10 2 34 -9z m123 -35 c100 -67 40 -42 -73 30 -27 17
-28 18 -5 11 14 -3 49 -22 78 -41z m3081 43 c-3 -3 -24 -9 -48 -15 -24 -5 -39
-6 -35 -1 12 11 94 26 83 16z m306 -6 c3 -5 1 -10 -4 -10 -6 0 -11 5 -11 10 0
6 2 10 4 10 3 0 8 -4 11 -10z m-56 -4 c-10 -9 -109 -14 -104 -6 4 6 29 10 57
10 28 0 49 -2 47 -4z m-192 -22 c-3 -3 -12 -4 -19 -1 -8 3 -5 6 6 6 11 1 17
-2 13 -5z m-3804 -11 c-7 -2 -19 -2 -25 0 -7 3 -2 5 12 5 14 0 19 -2 13 -5z
m300 0 c-7 -2 -19 -2 -25 0 -7 3 -2 5 12 5 14 0 19 -2 13 -5z m313 -9 c18 -14
18 -14 -6 -3 -31 14 -36 19 -24 19 6 0 19 -7 30 -16z m261 -26 c21 -24 37 -48
31 -48 -2 0 -19 16 -38 35 -19 19 -29 35 -24 35 6 0 20 -10 31 -22z m2727 7
c-4 -8 -16 -15 -28 -15 -20 0 -20 1 4 14 14 8 26 14 27 15 1 1 0 -6 -3 -14z
m131 5 c3 -5 -1 -10 -9 -10 -8 0 -18 5 -21 10 -3 6 1 10 9 10 8 0 18 -4 21
-10z m158 3 c-7 -2 -21 -2 -30 0 -10 3 -4 5 12 5 17 0 24 -2 18 -5z m-3217
-28 c23 -18 10 -18 -36 0 -32 12 -33 14 -9 14 14 1 34 -6 45 -14z m-133 -12
c-7 -2 -21 -2 -30 0 -10 3 -4 5 12 5 17 0 24 -2 18 -5z m2897 -13 c-27 -21
-40 -25 -40 -12 0 15 24 32 45 32 19 0 18 -2 -5 -20z m287 14 c-3 -3 -12 -4
-19 -1 -8 3 -5 6 6 6 11 1 17 -2 13 -5z m-129 -11 c-10 -2 -28 -2 -40 0 -13 2
-5 4 17 4 22 1 32 -1 23 -4z m-2748 -40 c0 -7 -39 17 -46 28 -3 6 5 3 20 -6
14 -10 26 -19 26 -22z m3128 30 c-10 -2 -26 -2 -35 0 -10 3 -2 5 17 5 19 0 27
-2 18 -5z m-3011 -123 c6 0 15 -5 18 -11 4 -5 -8 -4 -27 4 -41 17 -173 102
-183 116 -3 6 36 -16 87 -49 51 -33 98 -60 105 -60z m79 88 l29 -33 -32 29
c-31 28 -38 36 -30 36 2 0 16 -15 33 -32z m2194 28 c0 -2 -7 -7 -16 -10 -8 -3
-12 -2 -9 4 6 10 25 14 25 6z m40 0 c0 -2 -7 -9 -15 -16 -13 -11 -14 -10 -9 4
5 14 24 23 24 12z m90 -9 c0 -2 -12 -14 -27 -28 l-28 -24 24 28 c23 25 31 32
31 24z m267 -3 c-3 -3 -12 -4 -19 -1 -8 3 -5 6 6 6 11 1 17 -2 13 -5z m368 -4
c3 -6 -4 -10 -17 -10 -18 0 -20 2 -8 10 19 12 18 12 25 0z m-685 -4 c0 -2 -8
-10 -17 -17 -16 -13 -17 -12 -4 4 13 16 21 21 21 13z m-3563 -12 c-3 -3 -12
-4 -19 -1 -8 3 -5 6 6 6 11 1 17 -2 13 -5z m886 -1 c-7 -2 -19 -2 -25 0 -7 3
-2 5 12 5 14 0 19 -2 13 -5z m1082 -31 c39 -16 102 -49 140 -74 68 -44 165
-137 165 -157 0 -21 -18 -19 -51 8 -58 47 -217 133 -301 163 -78 28 -152 35
-193 19 -28 -11 -49 12 -35 38 25 47 164 49 275 3z m1011 15 c15 -13 24 -29
21 -35 -4 -6 -40 -10 -86 -10 -43 0 -96 -5 -118 -11 -43 -12 -176 -83 -237
-128 -68 -50 -110 -73 -133 -73 -13 0 -23 4 -23 9 0 19 208 180 280 216 63 33
144 54 207 54 51 1 67 -3 89 -22z m819 13 c19 -8 19 -9 -2 -9 -12 -1 -25 4
-28 9 -7 12 2 12 30 0z m-2383 -54 c16 -29 -7 -11 -33 27 l-23 32 23 -20 c13
-11 27 -28 33 -39z m2611 47 c-7 -2 -19 -2 -25 0 -7 3 -2 5 12 5 14 0 19 -2
13 -5z m-682 -44 c-12 -13 -21 -19 -21 -14 0 11 32 46 38 41 2 -3 -5 -15 -17
-27z m-2046 -7 c-3 -3 -11 0 -18 7 -9 10 -8 11 6 5 10 -3 15 -9 12 -12z m2165
14 c0 -2 -7 -7 -16 -10 -8 -3 -12 -2 -9 4 6 10 25 14 25 6z m60 -1 c0 -2 -10
-9 -22 -15 -22 -11 -22 -10 -4 4 21 17 26 19 26 11z m120 1 c0 -2 -7 -6 -15
-10 -8 -3 -15 -1 -15 4 0 6 7 10 15 10 8 0 15 -2 15 -4z m245 -6 c19 -8 19 -9
-2 -9 -12 -1 -25 4 -28 9 -7 12 2 12 30 0z m-295 -4 c0 -2 -7 -7 -16 -10 -8
-3 -12 -2 -9 4 6 10 25 14 25 6z m167 -22 c-5 -5 -57 13 -57 20 0 3 14 0 31
-6 16 -6 28 -12 26 -14z m-92 6 c-3 -5 -11 -10 -16 -10 -6 0 -7 5 -4 10 3 6
11 10 16 10 6 0 7 -4 4 -10z m-2287 -20 c45 -27 40 -34 -5 -8 -47 27 -49 28
-37 28 5 0 24 -9 42 -20z m1839 -2 c-3 -8 -6 -5 -6 6 -1 11 2 17 5 13 3 -3 4
-12 1 -19z m596 5 c-7 -2 -19 -2 -25 0 -7 3 -2 5 12 5 14 0 19 -2 13 -5z
m-197 -13 c14 0 22 -4 19 -10 -7 -11 -55 -3 -70 13 -7 7 -4 8 8 3 10 -3 30 -6
43 -6z m155 -17 c13 -15 12 -15 -8 -4 -24 12 -29 21 -14 21 5 0 15 -7 22 -17z
m59 7 c8 -5 11 -10 5 -10 -5 0 -17 5 -25 10 -8 5 -10 10 -5 10 6 0 17 -5 25
-10z m120 0 c0 -5 -2 -10 -4 -10 -3 0 -8 5 -11 10 -3 6 -1 10 4 10 6 0 11 -4
11 -10z m-2405 -51 c15 -17 9 -15 -27 10 -27 17 -48 34 -48 37 0 10 56 -25 75
-47z m1955 47 c0 -2 -7 -7 -16 -10 -8 -3 -12 -2 -9 4 6 10 25 14 25 6z m-1985
-64 c-5 -5 -95 47 -95 54 0 3 22 -7 49 -23 28 -15 48 -29 46 -31z m1612 36
c-3 -8 -6 -5 -6 6 -1 11 2 17 5 13 3 -3 4 -12 1 -19z m83 19 c0 -2 -10 -12
-21 -23 -22 -19 -22 -19 -10 4 10 18 31 31 31 19z m490 -13 c0 -2 -9 -4 -21
-4 -11 0 -18 4 -14 10 5 8 35 3 35 -6z m-2556 -3 c4 -5 -12 -7 -36 -4 -57 8
-61 13 -10 13 22 0 43 -4 46 -9z m1750 -17 c7 -18 -19 -43 -44 -44 -8 0 -40
-3 -70 -6 -68 -8 -59 6 26 41 70 29 80 30 88 9z m43 10 c-3 -3 -12 -4 -19 -1
-8 3 -5 6 6 6 11 1 17 -2 13 -5z m-2728 -24 c58 -11 110 -25 115 -31 8 -8 3
-10 -19 -5 -222 42 -263 43 -307 6 -13 -11 -17 -19 -10 -20 21 0 13 -20 -8
-20 -16 0 -20 -7 -20 -33 0 -18 6 -39 13 -46 10 -11 8 -12 -9 -3 -25 13 -40
98 -21 121 45 55 106 62 266 31z m1234 3 c18 -9 64 -27 102 -39 81 -26 71 -32
-13 -8 -57 17 -132 50 -132 59 0 8 10 6 43 -12z m466 6 c79 -26 92 -32 80 -39
-8 -6 -6 -11 7 -19 17 -9 17 -10 -6 -11 -14 0 -37 6 -52 14 -16 9 -30 10 -36
4 -11 -11 -92 19 -92 34 0 7 -5 6 -14 -1 -10 -9 -17 -7 -27 6 -8 9 -9 14 -4
11 6 -3 19 -2 30 3 29 11 74 11 114 -2z m1848 5 c-3 -3 -12 -4 -19 -1 -8 3 -5
6 6 6 11 1 17 -2 13 -5z m-2136 -21 c13 -16 12 -17 -3 -4 -10 7 -18 15 -18 17
0 8 8 3 21 -13z m1689 3 c0 -5 -88 -46 -97 -46 -9 1 78 49 90 50 4 0 7 -2 7
-4z m60 -14 c0 -5 -17 -16 -37 -25 -21 -9 -53 -26 -71 -38 -18 -12 -35 -19
-37 -17 -4 3 133 88 143 88 1 0 2 -4 2 -8z m53 -9 c-7 -2 -19 -2 -25 0 -7 3
-2 5 12 5 14 0 19 -2 13 -5z m-2200 -10 c-7 -2 -19 -2 -25 0 -7 3 -2 5 12 5
14 0 19 -2 13 -5z m1823 -2 c-3 -5 -16 -11 -28 -14 -22 -6 -22 -5 -4 8 22 17
40 20 32 6z m53 -7 c-7 -8 -26 -22 -43 -30 l-31 -15 25 20 c14 12 30 25 35 30
17 16 28 12 14 -5z m-1756 -1 c-7 -2 -19 -2 -25 0 -7 3 -2 5 12 5 14 0 19 -2
13 -5z m1516 -14 c-6 -4 -30 -7 -53 -7 -26 0 -34 3 -22 7 23 9 89 9 75 0z
m-1396 -6 c-7 -2 -19 -2 -25 0 -7 3 -2 5 12 5 14 0 19 -2 13 -5z m607 -3 c13
-8 13 -10 -2 -10 -9 0 -20 5 -23 10 -8 13 5 13 25 0z m1086 1 c-7 -10 -66 -33
-66 -25 0 4 57 32 68 34 2 0 1 -4 -2 -9z m532 2 c-10 -2 -26 -2 -35 0 -10 3
-2 5 17 5 19 0 27 -2 18 -5z m-987 -18 c-18 -8 -36 -15 -40 -15 -13 1 45 29
59 29 8 0 0 -6 -19 -14z m781 -1 c32 -9 58 -20 58 -25 0 -4 -23 -1 -51 7 -28
9 -70 19 -93 24 -41 8 -41 8 -7 9 19 1 61 -6 93 -15z m-139 -11 c-7 -2 -19 -2
-25 0 -7 3 -2 5 12 5 14 0 19 -2 13 -5z m340 0 c-7 -2 -21 -2 -30 0 -10 3 -4
5 12 5 17 0 24 -2 18 -5z m-513 -19 c-25 -7 -56 -13 -70 -13 -15 1 -7 5 19 10
24 5 46 11 49 14 3 3 15 5 26 4 12 0 1 -7 -24 -15z m130 12 c0 -2 -7 -7 -16
-10 -8 -3 -12 -2 -9 4 6 10 25 14 25 6z m-2052 -17 c-10 -5 -42 -12 -70 -14
l-53 -4 54 10 c30 5 57 12 60 14 2 3 9 5 15 5 6 0 3 -5 -6 -11z m1122 -66 c0
-38 -4 -74 -9 -82 -11 -18 -121 -32 -138 -19 -6 5 -17 41 -23 80 -15 86 -13
88 93 88 l77 0 0 -67z m393 60 c-7 -2 -19 -2 -25 0 -7 3 -2 5 12 5 14 0 19 -2
13 -5z m1237 0 c-8 -2 -28 -9 -45 -14 -28 -8 -29 -8 -11 6 11 8 31 15 45 14
15 0 19 -3 11 -6z m-2413 -30 c108 -76 179 -108 306 -140 l111 -28 -50 -7
c-56 -8 -108 3 -174 37 -143 74 -221 106 -286 117 -71 12 -72 11 -175 -27
-162 -59 -251 -58 -351 7 -26 17 -48 33 -48 35 0 5 68 -3 152 -17 73 -13 81
-12 195 14 65 16 123 30 128 32 6 2 45 2 88 0 54 -3 86 -10 104 -23z m1406 20
c-7 -2 -19 -2 -25 0 -7 3 -2 5 12 5 14 0 19 -2 13 -5z m612 -21 c-6 -7 -45 9
-45 18 0 4 11 3 24 -3 14 -7 23 -13 21 -15z m-2528 2 c-3 -3 -12 -4 -19 -1 -8
3 -5 6 6 6 11 1 17 -2 13 -5z m1820 0 c-3 -3 -12 -4 -19 -1 -8 3 -5 6 6 6 11
1 17 -2 13 -5z m153 -4 c17 -6 9 -7 -25 -3 -27 3 -52 7 -54 9 -8 7 54 2 79 -6z
m233 3 c-7 -2 -21 -2 -30 0 -10 3 -4 5 12 5 17 0 24 -2 18 -5z m75 -10 c-10
-2 -26 -2 -35 0 -10 3 -2 5 17 5 19 0 27 -2 18 -5z m-228 -19 c0 -2 -11 -4
-25 -4 -14 0 -25 4 -25 9 0 4 11 6 25 3 14 -2 25 -6 25 -8z m-352 -1 c-10 -2
-26 -2 -35 0 -10 3 -2 5 17 5 19 0 27 -2 18 -5z m505 0 c-7 -2 -21 -2 -30 0
-10 3 -4 5 12 5 17 0 24 -2 18 -5z m44 -9 c-3 -3 -12 -4 -19 -1 -8 3 -5 6 6 6
11 1 17 -2 13 -5z m-114 -11 c-7 -2 -21 -2 -30 0 -10 3 -4 5 12 5 17 0 24 -2
18 -5z m60 -10 c-7 -2 -21 -2 -30 0 -10 3 -4 5 12 5 17 0 24 -2 18 -5z m-2413
-23 c0 -5 -4 -10 -9 -10 -6 0 -13 5 -16 10 -3 6 1 10 9 10 9 0 16 -4 16 -10z
m685 0 c3 -5 2 -10 -4 -10 -5 0 -13 5 -16 10 -3 6 -2 10 4 10 5 0 13 -4 16
-10z m1560 -11 c39 -6 116 -19 172 -30 56 -10 115 -19 130 -19 40 0 74 -11 67
-21 -3 -5 -18 -9 -33 -9 -16 0 -44 -3 -62 -7 l-34 -8 45 -6 45 -6 -50 -1 c-51
-2 -74 4 -250 58 -66 21 -127 32 -180 35 -75 3 -108 17 -68 28 22 7 124 0 218
-14z m-222 -66 c-7 -2 -19 -2 -25 0 -7 3 -2 5 12 5 14 0 19 -2 13 -5z m244
-23 c15 -9 15 -10 -7 -4 -39 10 -70 23 -70 28 0 7 56 -10 77 -24z m-50 -16
c-3 -3 -12 -4 -19 -1 -8 3 -5 6 6 6 11 1 17 -2 13 -5z"/>
<path d="M4665 4560 c3 -5 8 -10 11 -10 2 0 4 5 4 10 0 6 -5 10 -11 10 -5 0
-7 -4 -4 -10z"/>
<path d="M3750 4370 c14 -4 34 -8 45 -8 16 0 15 2 -5 8 -14 4 -34 8 -45 8 -16
0 -15 -2 5 -8z"/>
<path d="M1820 4818 c0 -5 18 -48 41 -95 31 -66 57 -101 108 -152 61 -60 154
-125 150 -104 -5 18 15 90 31 118 18 29 23 53 21 88 -1 12 -9 17 -28 17 -16 0
-34 4 -41 9 -7 4 10 6 40 4 29 -3 71 0 93 5 36 9 32 10 -45 11 -99 1 -197 26
-300 74 -38 19 -70 30 -70 25z"/>
<path d="M8335 4798 c-22 -15 -76 -40 -120 -54 -67 -22 -98 -27 -190 -27 -115
0 -103 -14 14 -16 70 -1 79 -10 13 -13 -23 -1 -42 -3 -42 -4 0 -2 12 -10 28
-18 23 -12 30 -26 46 -96 15 -67 21 -80 35 -76 9 3 3 -6 -14 -20 l-30 -26 44
23 c73 39 185 159 227 243 19 40 34 82 32 93 -3 18 -6 18 -43 -9z"/>
<path d="M7435 4780 c-43 -7 -154 -36 -220 -58 -33 -11 -50 -25 -74 -61 l-24
-33 29 -24 c35 -28 35 -28 149 -9 50 8 108 15 130 15 52 0 107 -28 123 -63 15
-30 7 -52 -8 -27 -9 13 -10 13 -11 0 0 -12 -2 -12 -7 2 -6 15 -12 14 -65 -7
-31 -13 -90 -31 -130 -40 -39 -9 -83 -24 -97 -35 -24 -18 -24 -19 -6 -39 70
-78 251 -39 421 91 52 40 78 68 100 110 29 56 29 57 10 78 -27 30 -68 50 -104
50 -16 0 -82 -16 -145 -35 -64 -19 -133 -35 -153 -34 -34 0 -30 2 32 20 39 11
93 26 120 33 28 7 61 18 75 24 l25 10 -30 7 c-53 12 -51 13 20 15 49 1 62 4
45 9 -34 10 -143 11 -205 1z"/>
<path d="M7767 4595 c-12 -25 -15 -48 -10 -82 7 -54 60 -192 95 -250 13 -21
32 -57 43 -80 12 -25 25 -41 33 -38 6 2 12 -3 12 -12 0 -36 23 6 27 49 4 36
-3 60 -40 138 -25 52 -64 141 -87 198 -24 56 -46 104 -50 107 -4 2 -14 -11
-23 -30z"/>
<path d="M7060 4342 c-13 -10 -34 -26 -46 -37 -53 -49 -390 -158 -679 -219
-319 -67 -557 -95 -995 -117 -406 -20 -861 8 -1255 77 -77 14 -166 29 -197 35
-31 5 -110 23 -175 40 -65 17 -154 39 -198 50 -154 37 -402 139 -390 159 4 6
-5 10 -18 10 -20 0 -29 -12 -57 -72 -18 -40 -68 -145 -110 -233 -157 -325
-155 -315 -67 -365 67 -38 87 -39 25 0 -44 28 -64 47 -56 55 2 2 54 -20 115
-50 147 -71 257 -103 597 -180 516 -115 952 -160 1571 -160 431 0 572 9 1010
66 127 16 386 66 570 109 290 69 467 133 585 213 25 17 39 23 31 14 -10 -13
-11 -17 -1 -17 9 0 7 -7 -5 -20 -10 -12 -25 -18 -32 -15 -8 2 -12 1 -9 -4 3
-5 -14 -19 -39 -32 -24 -13 -42 -25 -40 -27 2 -2 32 11 66 29 72 39 102 79 93
123 -4 17 -55 129 -114 250 -59 122 -115 244 -125 271 -23 64 -25 66 -55 47z
m-6 -76 c-3 -8 8 -40 24 -72 16 -33 53 -119 82 -191 28 -73 55 -133 59 -133 4
0 16 -25 26 -55 17 -47 22 -54 40 -49 33 10 5 -11 -60 -45 -64 -33 -95 -39
-95 -18 0 6 -12 39 -26 72 -31 71 -60 147 -103 270 -45 127 -60 155 -79 155
-9 0 17 17 58 39 41 21 76 39 77 40 1 0 0 -5 -3 -13z m-3689 -89 c180 -58 397
-108 710 -162 508 -87 1123 -106 1690 -50 310 31 753 117 1004 196 68 22 126
37 129 34 3 -3 0 -5 -7 -5 -14 0 -7 -45 14 -95 17 -39 29 -78 27 -87 -1 -4 15
-51 35 -105 20 -54 38 -116 40 -138 3 -22 9 -44 14 -49 15 -16 10 -44 -8 -56
-14 -8 -12 -9 12 -4 17 4 40 11 53 15 38 15 39 9 2 -10 -121 -64 -617 -184
-950 -230 -342 -47 -417 -53 -880 -66 -391 -11 -942 23 -1290 80 -390 64 -771
161 -899 229 -14 8 -46 22 -71 31 -25 9 -56 23 -68 32 -21 13 -22 16 -9 31 17
20 94 195 132 302 15 41 38 98 51 126 13 28 24 56 24 62 0 6 22 1 53 -12 28
-13 115 -44 192 -69z"/>
<path d="M3216 4113 c-21 -43 -48 -109 -61 -148 -13 -38 -42 -115 -65 -169
-40 -100 -41 -115 -2 -116 22 0 27 -2 39 -11 8 -8 10 -4 6 11 -3 12 -2 25 3
29 25 17 116 307 116 367 0 20 6 51 14 69 12 30 10 45 -6 45 -4 0 -24 -35 -44
-77z"/>
<path d="M3314 4000 c-56 -22 -72 -103 -29 -145 28 -29 95 -36 95 -10 0 11 -7
14 -22 10 -33 -7 -61 19 -60 54 1 42 17 68 46 73 28 6 59 -9 51 -23 -9 -13 9
-11 23 3 19 19 14 36 -10 35 -13 -1 -34 2 -48 5 -14 3 -35 2 -46 -2z"/>
<path d="M3360 3930 c0 -5 5 -10 11 -10 5 0 7 5 4 10 -3 6 -8 10 -11 10 -2 0
-4 -4 -4 -10z"/>
<path d="M6526 3914 c-8 -21 -1 -28 19 -20 9 3 15 11 13 18 -7 19 -25 20 -32
2z"/>
<path d="M6795 3910 c-14 -16 -20 -17 -26 -8 -10 15 -40 1 -47 -22 -3 -7 0
-10 7 -6 8 5 11 -10 11 -49 0 -71 19 -70 35 1 20 91 44 103 37 19 -4 -49 -2
-55 15 -55 19 0 43 17 43 32 0 4 -6 5 -13 2 -9 -3 -12 6 -9 36 4 37 -9 70 -28
70 -4 0 -15 -9 -25 -20z"/>
<path d="M3429 3894 c-10 -13 -10 -20 5 -45 21 -36 14 -49 -13 -25 -14 12 -21
14 -26 6 -12 -19 20 -43 48 -36 33 8 41 31 21 62 -19 28 -12 43 11 24 9 -7 19
-10 23 -6 8 9 -26 36 -44 36 -6 0 -17 -7 -25 -16z"/>
<path d="M3532 3888 c-25 -48 -40 -105 -32 -119 8 -12 24 -7 26 9 0 4 8 24 17
45 14 33 20 38 39 32 23 -6 23 -6 3 10 -11 9 -19 23 -17 31 5 23 -23 16 -36
-8z"/>
<path d="M6627 3870 c-31 -24 -46 -83 -27 -105 33 -40 100 7 100 69 0 56 -30
70 -73 36z m37 -16 c11 -28 6 -62 -10 -78 -31 -32 -47 15 -22 69 13 29 23 32
32 9z"/>
<path d="M3835 3870 c13 -20 -6 -50 -31 -50 -34 0 -74 -42 -74 -78 0 -33 14
-43 45 -32 13 4 24 2 30 -7 9 -12 13 -11 30 2 17 14 17 16 3 11 -20 -6 -22 -3
-9 22 6 9 18 45 29 80 l19 62 -24 0 c-14 0 -21 -4 -18 -10z m-20 -87 c-8 -34
-23 -53 -41 -53 -20 0 -17 23 7 54 27 34 43 34 34 -1z"/>
<path d="M3914 3854 c3 -9 6 -18 6 -20 0 -2 5 -4 10 -4 6 0 10 9 10 20 0 12
-7 20 -16 20 -11 0 -14 -5 -10 -16z"/>
<path d="M3605 3824 c-21 -52 -20 -84 4 -84 23 0 37 16 19 23 -13 4 -11 13 17
80 5 12 2 17 -9 17 -9 0 -22 -16 -31 -36z"/>
<path d="M6520 3849 c-9 -7 -11 -12 -4 -15 6 -3 9 -25 6 -59 -5 -58 3 -68 31
-37 19 21 23 37 6 26 -8 -5 -9 8 -4 45 7 53 -2 64 -35 40z"/>
<path d="M6424 3823 c-20 -21 -24 -36 -22 -67 3 -34 7 -42 26 -44 24 -4 62 22
62 41 0 6 -9 2 -19 -7 -11 -10 -25 -15 -30 -11 -14 8 -14 51 0 76 8 16 13 18
25 8 17 -14 29 -6 21 16 -9 23 -35 18 -63 -12z"/>
<path d="M3671 3806 c-23 -36 -27 -71 -11 -81 14 -8 50 4 50 17 0 5 -7 8 -15
4 -13 -5 -13 -1 1 32 9 20 18 43 21 50 11 27 -27 10 -46 -22z"/>
<path d="M6281 3796 c-30 -32 -40 -103 -17 -112 10 -4 25 1 35 10 15 13 20 14
24 4 5 -15 38 0 45 22 3 8 0 10 -8 5 -10 -6 -11 1 -6 29 4 21 10 44 13 52 10
26 -60 18 -86 -10z m49 -19 c0 -26 -26 -67 -42 -67 -6 0 -8 12 -4 32 11 53 46
80 46 35z"/>
<path d="M3903 3803 c-7 -3 -13 -15 -13 -27 0 -13 -5 -38 -11 -55 -7 -21 -8
-36 -2 -42 11 -11 43 -2 43 13 0 5 -4 6 -10 3 -13 -8 -13 -7 6 49 16 47 11 68
-13 59z"/>
<path d="M4253 3783 c-4 -10 -11 -21 -17 -25 -8 -5 -8 -8 0 -8 8 0 7 -14 -4
-43 -9 -24 -13 -51 -9 -60 8 -22 41 -22 58 -1 12 15 11 16 -9 10 -25 -8 -26
-6 -10 45 7 23 17 39 27 39 12 0 12 3 3 12 -7 7 -12 20 -12 30 0 23 -19 23
-27 1z"/>
<path d="M6154 3785 c-17 -13 -17 -14 -1 -15 19 0 22 -19 7 -69 -11 -40 -9
-44 14 -35 9 3 16 17 16 29 0 37 18 75 35 75 8 0 15 7 15 15 0 18 -21 20 -38
3 -9 -9 -12 -9 -12 0 0 16 -12 15 -36 -3z"/>
<path d="M3971 3764 c-66 -55 -13 -138 56 -89 27 19 41 79 23 100 -18 22 -44
18 -79 -11z m59 -17 c0 -28 -26 -67 -46 -67 -19 0 -18 40 2 68 20 29 44 28 44
-1z"/>
<path d="M4865 3770 c-10 -17 12 -37 25 -24 8 8 6 15 -4 23 -10 9 -16 9 -21 1z"/>
<path d="M5004 3748 c1 -25 -4 -33 -19 -36 -28 -6 -56 -32 -71 -69 -23 -55 6
-84 48 -46 17 15 18 15 18 0 0 -10 4 -17 9 -17 18 0 41 12 41 22 0 5 -4 6 -10
3 -12 -8 -13 -13 5 70 19 92 19 105 -4 105 -15 0 -19 -7 -17 -32z m-10 -80
c-8 -27 -36 -67 -46 -68 -15 0 -15 17 -1 53 10 25 21 37 35 37 16 0 18 -4 12
-22z"/>
<path d="M5297 3745 c5 -32 4 -35 -20 -35 -16 0 -35 -11 -51 -31 -46 -54 -24
-128 24 -84 18 16 20 16 26 1 8 -20 15 -20 40 0 16 13 17 15 1 10 -14 -4 -16
-1 -12 17 3 12 11 52 19 90 l14 67 -24 0 c-20 0 -22 -3 -17 -35z m-24 -97
c-33 -56 -59 -43 -32 16 12 25 41 39 47 24 2 -5 -5 -22 -15 -40z"/>
<path d="M6061 3758 c-29 -31 -38 -85 -17 -106 14 -15 19 -14 52 1 20 10 34
20 31 23 -3 3 -15 1 -26 -6 -12 -6 -26 -8 -31 -5 -18 11 -11 31 16 45 29 16
48 45 39 60 -11 17 -43 11 -64 -12z m34 -17 c-3 -12 -13 -21 -21 -21 -9 0 -12
5 -8 13 23 40 41 46 29 8z"/>
<path d="M5897 3739 c-18 -16 -19 -18 -3 -13 16 6 17 3 12 -22 -3 -16 -8 -49
-12 -74 -3 -25 -11 -51 -17 -58 -9 -11 -5 -13 18 -10 25 2 29 7 30 33 0 23 5
30 25 35 29 7 62 63 58 100 -3 22 -8 25 -46 26 -29 1 -50 -4 -65 -17z m81 -27
c4 -28 -24 -75 -41 -69 -12 4 -12 26 -1 75 6 30 38 25 42 -6z"/>
<path d="M4331 3724 c-50 -63 -6 -135 55 -89 18 14 17 14 -13 9 -28 -6 -33 -4
-33 13 0 13 10 22 32 28 51 15 48 64 -4 65 -9 0 -26 -12 -37 -26z m40 -17
c-11 -12 -24 -18 -27 -14 -10 10 27 48 38 41 6 -4 1 -16 -11 -27z"/>
<path d="M5831 3741 c-7 -5 -11 -14 -7 -20 8 -12 -16 -62 -38 -80 -20 -17 -21
0 -5 48 14 40 0 62 -26 41 -12 -10 -13 -15 -4 -21 10 -6 10 -13 1 -34 -26 -57
1 -84 45 -44 20 18 25 20 20 7 -3 -10 -3 -19 1 -22 12 -6 52 13 52 25 0 8 -5
7 -17 -2 -15 -13 -16 -11 -10 11 22 94 20 111 -12 91z"/>
<path d="M4439 3723 c-12 -15 -12 -16 4 -10 20 7 20 6 8 -25 -20 -55 -22 -78
-6 -78 8 0 17 12 21 28 9 38 32 72 48 72 12 0 12 -7 0 -46 -19 -63 -8 -79 32
-49 19 15 19 15 0 8 -16 -5 -18 -3 -12 13 4 10 10 36 13 57 5 34 4 37 -19 37
-13 0 -29 -5 -36 -12 -9 -9 -12 -8 -12 5 0 22 -24 22 -41 0z"/>
<path d="M5685 3732 c-48 -10 -58 -42 -24 -78 12 -13 18 -28 14 -35 -6 -9 -12
-7 -22 7 -12 16 -15 17 -23 4 -13 -22 12 -44 39 -35 12 4 27 18 33 31 10 21 8
28 -16 53 -29 30 -21 54 8 25 15 -14 17 -14 22 1 8 21 -5 33 -31 27z"/>
<path d="M4601 3696 c-13 -14 -24 -38 -24 -58 -2 -27 2 -34 21 -36 13 -2 30 2
38 8 11 10 14 9 14 -4 0 -21 24 -21 41 1 12 14 12 16 0 8 -11 -7 -13 -2 -8 26
3 19 9 44 13 57 6 20 3 22 -33 22 -29 0 -46 -7 -62 -24z m49 -40 c-22 -37 -34
-44 -45 -26 -7 12 20 67 37 73 26 9 29 -11 8 -47z"/>
<path d="M4768 3708 c-51 -17 -67 -107 -22 -125 17 -6 64 22 64 39 0 9 -3 9
-12 0 -23 -23 -48 -14 -48 16 0 41 14 56 44 48 19 -5 26 -2 26 8 0 19 -20 25
-52 14z"/>
<path d="M5504 3703 c-17 -52 -27 -72 -39 -76 -9 -4 -11 6 -7 39 4 39 2 44
-16 44 -12 0 -24 -4 -27 -10 -3 -5 -1 -10 4 -10 6 0 11 -21 11 -50 0 -54 4
-58 38 -34 25 17 27 13 11 -19 -15 -27 -30 -38 -46 -32 -7 2 -13 -2 -13 -10 0
-19 13 -19 49 -1 22 12 31 28 46 83 22 86 22 85 8 90 -7 3 -16 -4 -19 -14z"/>
<path d="M4849 3705 c-1 -3 -2 -17 -3 -32 -1 -16 -6 -43 -10 -60 -7 -29 -5
-33 13 -33 21 0 37 16 21 22 -6 2 -4 19 5 43 19 54 18 65 -5 65 -11 0 -21 -2
-21 -5z"/>
<path d="M5063 3703 c-7 -2 -13 -9 -13 -14 0 -4 6 -6 14 -3 11 4 11 -3 0 -47
-8 -29 -12 -55 -9 -57 11 -11 35 10 35 31 0 28 37 80 50 72 5 -3 5 -17 0 -31
-22 -58 -2 -98 30 -59 11 13 10 14 -5 8 -15 -5 -17 -3 -11 13 4 10 10 34 13
51 7 40 -18 55 -46 29 -16 -15 -19 -15 -24 -1 -7 15 -13 17 -34 8z"/>
<path d="M4090 3664 c-6 -15 -8 -29 -6 -32 8 -8 36 19 36 34 0 26 -20 25 -30
-2z"/>
<path d="M3678 4163 c7 -3 16 -2 19 1 4 3 -2 6 -13 5 -11 0 -14 -3 -6 -6z"/>
<path d="M4088 4083 c6 -2 18 -2 25 0 6 3 1 5 -13 5 -14 0 -19 -2 -12 -5z"/>
<path d="M4747 4013 c18 -2 50 -2 70 0 21 2 7 4 -32 4 -38 0 -55 -2 -38 -4z"/>
<path d="M5288 4013 c29 -2 74 -2 100 0 26 2 2 3 -53 3 -55 0 -76 -1 -47 -3z"/>
<path d="M4973 4003 c37 -2 97 -2 135 0 37 2 6 3 -68 3 -74 0 -105 -1 -67 -3z"/>
<path d="M5208 4003 c7 -3 16 -2 19 1 4 3 -2 6 -13 5 -11 0 -14 -3 -6 -6z"/>
<path d="M2950 3634 c0 -7 91 -46 96 -42 2 2 -19 14 -46 25 -28 12 -50 19 -50
17z"/>
<path d="M7085 3585 c-25 -12 -26 -14 -5 -9 28 7 60 23 45 23 -5 0 -23 -6 -40
-14z"/>
</g>
</svg>
